  0
SECTION
  2
HEADER
  9
$ACADVER
  1
AC1015
  9
$ACADMAINTVER
 70
     6
  9
$DWGCODEPAGE
  3
ANSI_1251
  9
$INSBASE
 10
0.0
 20
0.0
 30
0.0
  9
$EXTMIN
 10
0.0
 20
0.0
 30
0.0
  9
$EXTMAX
 10
700.0
 20
700.0
 30
0.0
  9
$LIMMIN
 10
0.0
 20
0.0
  9
$LIMMAX
 10
700.0
 20
700.0
  9
$ORTHOMODE
 70
     0
  9
$REGENMODE
 70
     1
  9
$FILLMODE
 70
     1
  9
$QTEXTMODE
 70
     0
  9
$MIRRTEXT
 70
     1
  9
$LTSCALE
 40
1.0
  9
$ATTMODE
 70
     1
  9
$TEXTSIZE
 40
3.5
  9
$TRACEWID
 40
1.0
  9
$TEXTSTYLE
  7
Standard
  9
$CLAYER
  8
0
  9
$CELTYPE
  6
ByLayer
  9
$CECOLOR
 62
   256
  9
$CELTSCALE
 40
1.0
  9
$DISPSILH
 70
     0
  9
$DIMSCALE
 40
1.0
  9
$DIMASZ
 40
3.556
  9
$DIMEXO
 40
1.0
  9
$DIMDLI
 40
3.75
  9
$DIMRND
 40
0.0
  9
$DIMDLE
 40
0.0
  9
$DIMEXE
 40
1.0
  9
$DIMTP
 40
0.0
  9
$DIMTM
 40
0.0
  9
$DIMTXT
 40
3.5
  9
$DIMCEN
 40
2.5
  9
$DIMTSZ
 40
0.0
  9
$DIMTOL
 70
     0
  9
$DIMLIM
 70
     0
  9
$DIMTIH
 70
     1
  9
$DIMTOH
 70
     1
  9
$DIMSE1
 70
     0
  9
$DIMSE2
 70
     0
  9
$DIMTAD
 70
     1
  9
$DIMZIN
 70
     1
  9
$DIMBLK
  1

  9
$DIMASO
 70
     1
  9
$DIMSHO
 70
     1
  9
$DIMPOST
  1

  9
$DIMAPOST
  1

  9
$DIMALT
 70
     0
  9
$DIMALTD
 70
     3
  9
$DIMALTF
 40
0.0393700787
  9
$DIMLFAC
 40
1.0
  9
$DIMTOFL
 70
     1
  9
$DIMTVP
 40
0.0
  9
$DIMTIX
 70
     0
  9
$DIMSOXD
 70
     0
  9
$DIMSAH
 70
     0
  9
$DIMBLK1
  1

  9
$DIMBLK2
  1

  9
$DIMSTYLE
  2
ISO-25
  9
$DIMCLRD
 70
     0
  9
$DIMCLRE
 70
     0
  9
$DIMCLRT
 70
     0
  9
$DIMTFAC
 40
1.0
  9
$DIMGAP
 40
1.524
  9
$DIMJUST
 70
     0
  9
$DIMSD1
 70
     0
  9
$DIMSD2
 70
     0
  9
$DIMTOLJ
 70
     0
  9
$DIMTZIN
 70
     1
  9
$DIMALTZ
 70
     0
  9
$DIMALTTZ
 70
     0
  9
$DIMUPT
 70
     0
  9
$DIMDEC
 70
     2
  9
$DIMTDEC
 70
     2
  9
$DIMALTU
 70
     2
  9
$DIMALTTD
 70
     3
  9
$DIMTXSTY
  7
Standard
  9
$DIMAUNIT
 70
     0
  9
$DIMADEC
 70
     2
  9
$DIMALTRND
 40
0.0
  9
$DIMAZIN
 70
     0
  9
$DIMDSEP
 70
    44
  9
$DIMATFIT
 70
     3
  9
$DIMFRAC
 70
     0
  9
$DIMLDRBLK
  1

  9
$DIMLUNIT
 70
     2
  9
$DIMLWD
 70
    -2
  9
$DIMLWE
 70
    -2
  9
$DIMTMOVE
 70
     0
  9
$LUNITS
 70
     2
  9
$LUPREC
 70
     2
  9
$SKETCHINC
 40
1.0
  9
$FILLETRAD
 40
10.0
  9
$AUNITS
 70
     0
  9
$AUPREC
 70
     2
  9
$MENU
  1
.
  9
$ELEVATION
 40
0.0
  9
$PELEVATION
 40
0.0
  9
$THICKNESS
 40
0.0
  9
$LIMCHECK
 70
     0
  9
$CHAMFERA
 40
0.0
  9
$CHAMFERB
 40
0.0
  9
$CHAMFERC
 40
0.0
  9
$CHAMFERD
 40
0.0
  9
$SKPOLY
 70
     0
  9
$TDCREATE
 40
2460003.807624491
  9
$TDUCREATE
 40
2460003.682624491
  9
$TDUPDATE
 40
2460003.807624792
  9
$TDUUPDATE
 40
2460003.682624792
  9
$TDINDWG
 40
0.0000000116
  9
$TDUSRTIMER
 40
0.0000000116
  9
$USRTIMER
 70
     1
  9
$ANGBASE
 50
0.0
  9
$ANGDIR
 70
     0
  9
$PDMODE
 70
     0
  9
$PDSIZE
 40
-1.0
  9
$PLINEWID
 40
0.0
  9
$SPLFRAME
 70
     0
  9
$SPLINETYPE
 70
     6
  9
$SPLINESEGS
 70
     8
  9
$HANDSEED
  5
C7
  9
$SURFTAB1
 70
     6
  9
$SURFTAB2
 70
     6
  9
$SURFTYPE
 70
     6
  9
$SURFU
 70
     6
  9
$SURFV
 70
     6
  9
$UCSBASE
  2

  9
$UCSNAME
  2

  9
$UCSORG
 10
0.0
 20
0.0
 30
0.0
  9
$UCSXDIR
 10
1.0
 20
0.0
 30
0.0
  9
$UCSYDIR
 10
0.0
 20
1.0
 30
0.0
  9
$UCSORTHOREF
  2

  9
$UCSORTHOVIEW
 70
     0
  9
$UCSORGTOP
 10
0.0
 20
0.0
 30
0.0
  9
$UCSORGBOTTOM
 10
0.0
 20
0.0
 30
0.0
  9
$UCSORGLEFT
 10
0.0
 20
0.0
 30
0.0
  9
$UCSORGRIGHT
 10
0.0
 20
0.0
 30
0.0
  9
$UCSORGFRONT
 10
0.0
 20
0.0
 30
0.0
  9
$UCSORGBACK
 10
0.0
 20
0.0
 30
0.0
  9
$PUCSBASE
  2

  9
$PUCSNAME
  2

  9
$PUCSORG
 10
0.0
 20
0.0
 30
0.0
  9
$PUCSXDIR
 10
1.0
 20
0.0
 30
0.0
  9
$PUCSYDIR
 10
0.0
 20
1.0
 30
0.0
  9
$PUCSORTHOREF
  2

  9
$PUCSORTHOVIEW
 70
     0
  9
$PUCSORGTOP
 10
0.0
 20
0.0
 30
0.0
  9
$PUCSORGBOTTOM
 10
0.0
 20
0.0
 30
0.0
  9
$PUCSORGLEFT
 10
0.0
 20
0.0
 30
0.0
  9
$PUCSORGRIGHT
 10
0.0
 20
0.0
 30
0.0
  9
$PUCSORGFRONT
 10
0.0
 20
0.0
 30
0.0
  9
$PUCSORGBACK
 10
0.0
 20
0.0
 30
0.0
  9
$USERI1
 70
     0
  9
$USERI2
 70
     0
  9
$USERI3
 70
     0
  9
$USERI4
 70
     0
  9
$USERI5
 70
     0
  9
$USERR1
 40
0.0
  9
$USERR2
 40
0.0
  9
$USERR3
 40
0.0
  9
$USERR4
 40
0.0
  9
$USERR5
 40
0.0
  9
$WORLDVIEW
 70
     1
  9
$SHADEDGE
 70
     3
  9
$SHADEDIF
 70
    70
  9
$TILEMODE
 70
     1
  9
$MAXACTVP
 70
    64
  9
$PINSBASE
 10
0.0
 20
0.0
 30
0.0
  9
$PLIMCHECK
 70
     0
  9
$PEXTMIN
 10
1.0000000000E+20
 20
1.0000000000E+20
 30
1.0000000000E+20
  9
$PEXTMAX
 10
-1.0000000000E+20
 20
-1.0000000000E+20
 30
-1.0000000000E+20
  9
$PLIMMIN
 10
0.0
 20
0.0
  9
$PLIMMAX
 10
420.0
 20
297.0
  9
$UNITMODE
 70
     0
  9
$VISRETAIN
 70
     1
  9
$PLINEGEN
 70
     0
  9
$PSLTSCALE
 70
     1
  9
$TREEDEPTH
 70
  3020
  9
$CMLSTYLE
  2
Standard
  9
$CMLJUST
 70
     0
  9
$CMLSCALE
 40
20.0
  9
$PROXYGRAPHICS
 70
     1
  9
$MEASUREMENT
 70
     1
  9
$CELWEIGHT
370
    -1
  9
$ENDCAPS
280
     0
  9
$JOINSTYLE
280
     0
  9
$LWDISPLAY
290
     1
  9
$INSUNITS
 70
     4
  9
$HYPERLINKBASE
  1

  9
$STYLESHEET
  1

  9
$XEDIT
290
     1
  9
$CEPSNTYPE
380
     0
  9
$PSTYLEMODE
290
     1
  9
$FINGERPRINTGUID
  2
{c519c005-670d-4bd9-a171-f1e7c211ef43}
  9
$VERSIONGUID
  2
{FAEB1C32-E019-11D5-929B-00C0DF256EC4}
  9
$EXTNAMES
290
     1
  9
$PSVPSCALE
 40
0.0
  9
$OLESTARTUP
290
     0
  0
ENDSEC
  0
SECTION
  2
CLASSES
  0
CLASS
  1
ACDBDICTIONARYWDFLT
  2
AcDbDictionaryWithDefault
  3
ObjectDBX Classes
 90
        0
280
     0
281
     0
  0
CLASS
  1
VISUALSTYLE
  2
AcDbVisualStyle
  3
ObjectDBX Classes
 90
     4095
280
     0
281
     0
  0
CLASS
  1
MATERIAL
  2
AcDbMaterial
  3
ObjectDBX Classes
 90
     1153
280
     0
281
     0
  0
CLASS
  1
SCALE
  2
AcDbScale
  3
ObjectDBX Classes
 90
     1153
280
     0
281
     0
  0
CLASS
  1
TABLESTYLE
  2
AcDbTableStyle
  3
ObjectDBX Classes
 90
     4095
280
     0
281
     0
  0
CLASS
  1
MLEADERSTYLE
  2
AcDbMLeaderStyle
  3
ACDB_MLEADERSTYLE_CLASS
 90
     4095
280
     0
281
     0
  0
CLASS
  1
SUN
  2
AcDbSun
  3
SCENEOE
 90
     1153
280
     0
281
     0
  0
CLASS
  1
ACDBPLACEHOLDER
  2
AcDbPlaceHolder
  3
ObjectDBX Classes
 90
        0
280
     0
281
     0
  0
CLASS
  1
LAYOUT
  2
AcDbLayout
  3
ObjectDBX Classes
 90
        0
280
     0
281
     0
  0
ENDSEC
  0
SECTION
  2
TABLES
  0
TABLE
  2
VPORT
  5
8
330
0
100
AcDbSymbolTable
 70
     1
  0
VPORT
  5
29
330
8
100
AcDbSymbolTableRecord
100
AcDbViewportTableRecord
  2
*Active
 70
     0
 10
0.0
 20
0.0
 11
1.0
 21
1.0
 12
350.0
 22
350.0
 13
0.0
 23
0.0
 14
10.0
 24
10.0
 15
10.0
 25
10.0
 16
0.0
 26
0.0
 36
1.0
 17
0.0
 27
0.0
 37
0.0
 40
700.0
 41
1.0
 42
50.0
 43
0.0
 44
0.0
 50
0.0
 51
0.0
 71
     0
 72
  2000
 73
     1
 74
     3
 75
     0
 76
     0
 77
     0
 78
     0
281
     0
 65
     1
110
0.0
120
0.0
130
0.0
111
1.0
121
0.0
131
0.0
112
0.0
122
1.0
132
0.0
 79
     0
146
0.0
  0
ENDTAB
  0
TABLE
  2
LTYPE
  5
5
330
0
100
AcDbSymbolTable
 70
     6
  0
LTYPE
  5
14
330
5
100
AcDbSymbolTableRecord
100
AcDbLinetypeTableRecord
  2
ByBlock
 70
     0
  3

 72
    65
 73
     0
 40
0.0
  0
LTYPE
  5
15
330
5
100
AcDbSymbolTableRecord
100
AcDbLinetypeTableRecord
  2
ByLayer
 70
     0
  3

 72
    65
 73
     0
 40
0.0
  0
LTYPE
  5
16
330
5
100
AcDbSymbolTableRecord
100
AcDbLinetypeTableRecord
  2
Continuous
 70
     0
  3
Solid line
 72
    65
 73
     0
 40
0.0
  0
LTYPE
  5
6E
330
5
100
AcDbSymbolTableRecord
100
AcDbLinetypeTableRecord
  2
HIDDEN
 70
     0
  3
Hidden __ __ __ __ __ __ __ __ __ __ __ __ __ __
 72
    65
 73
     2
 40
1.905
 49
1.27
 74
     0
 49
-0.635
 74
     0
  0
LTYPE
  5
6F
330
5
100
AcDbSymbolTableRecord
100
AcDbLinetypeTableRecord
  2
PHANTOM
 70
     0
  3
Phantom ______  __  __  ______  __  __  ______
 72
    65
 73
     6
 40
12.7
 49
6.35
 74
     0
 49
-1.27
 74
     0
 49
1.27
 74
     0
 49
-1.27
 74
     0
 49
1.27
 74
     0
 49
-1.27
 74
     0
  0
LTYPE
  5
70
330
5
100
AcDbSymbolTableRecord
100
AcDbLinetypeTableRecord
  2
CENTER
 70
     0
  3
Center ____ _ ____ _ ____ _ ____ _ ____ _ ____
 72
    65
 73
     4
 40
10.16
 49
6.35
 74
     0
 49
-1.27
 74
     0
 49
1.27
 74
     0
 49
-1.27
 74
     0
  0
LTYPE
  5
71
330
5
100
AcDbSymbolTableRecord
100
AcDbLinetypeTableRecord
  2
CENTERX2
 70
     0
  3
Center (2x) ________  __  ________  __  _____
 72
    65
 73
     4
 40
20.32
 49
12.7
 74
     0
 49
-2.54
 74
     0
 49
2.54
 74
     0
 49
-2.54
 74
     0
  0
LTYPE
  5
72
330
5
100
AcDbSymbolTableRecord
100
AcDbLinetypeTableRecord
  2
DOT2
 70
     0
  3
Dot (.5x) ........................................
 72
    65
 73
     2
 40
0.635
 49
0.0
 74
     0
 49
-0.635
 74
     0
  0
ENDTAB
  0
TABLE
  2
LAYER
  5
2
330
0
100
AcDbSymbolTable
 70
     1
  0
LAYER
  5
10
330
2
100
AcDbSymbolTableRecord
100
AcDbLayerTableRecord
  2
0
 70
     0
 62
     7
  6
Continuous
370
    -3
390
F
  0
ENDTAB
  0
TABLE
  2
STYLE
  5
3
330
0
100
AcDbSymbolTable
 70
     1
  0
STYLE
  5
11
330
3
100
AcDbSymbolTableRecord
100
AcDbTextStyleTableRecord
  2
Standard
 70
     0
 40
0.0
 41
1.0
 50
0.0
 71
     0
 42
3.5
  3
txt
  4

  0
ENDTAB
  0
TABLE
  2
VIEW
  5
6
330
0
100
AcDbSymbolTable
 70
     0
  0
ENDTAB
  0
TABLE
  2
UCS
  5
7
330
0
100
AcDbSymbolTable
 70
     0
  0
ENDTAB
  0
TABLE
  2
APPID
  5
9
330
0
100
AcDbSymbolTable
 70
     1
  0
APPID
  5
12
330
9
100
AcDbSymbolTableRecord
100
AcDbRegAppTableRecord
  2
ACAD
 70
     0
  0
ENDTAB
  0
TABLE
  2
DIMSTYLE
  5
A
330
0
100
AcDbSymbolTable
 70
     1
100
AcDbDimStyleTable
  0
DIMSTYLE
105
27
330
A
100
AcDbSymbolTableRecord
100
AcDbDimStyleTableRecord
  2
ISO-25
 70
     0
 41
2.5
 42
0.625
 43
3.75
 44
1.25
 73
     0
 74
     0
 77
     1
 78
     8
140
2.5
141
2.5
143
0.0393700787
147
0.625
171
     3
172
     1
178
     0
271
     2
272
     2
274
     3
278
    44
283
     0
284
     8
340
11
  0
ENDTAB
  0
TABLE
  2
BLOCK_RECORD
  5
1
330
0
100
AcDbSymbolTable
 70
     4
  0
BLOCK_RECORD
  5
1F
330
1
100
AcDbSymbolTableRecord
100
AcDbBlockTableRecord
  2
*Model_Space
340
22
  0
BLOCK_RECORD
  5
1B
330
1
100
AcDbSymbolTableRecord
100
AcDbBlockTableRecord
  2
*Paper_Space
340
1E
  0
BLOCK_RECORD
  5
23
330
1
100
AcDbSymbolTableRecord
100
AcDbBlockTableRecord
  2
*Paper_Space0
340
26
  0
BLOCK_RECORD
  5
A2
330
1
100
AcDbSymbolTableRecord
100
AcDbBlockTableRecord
  2
SW_CENTERMARKSYMBOL_0
340
0
102
{BLKREFS
331
AD
102
}
  0
BLOCK_RECORD
  5
AE
330
1
100
AcDbSymbolTableRecord
100
AcDbBlockTableRecord
  2
SW_CENTERMARKSYMBOL_1
340
0
102
{BLKREFS
331
B9
102
}
  0
BLOCK_RECORD
  5
BA
330
1
100
AcDbSymbolTableRecord
100
AcDbBlockTableRecord
  2
SW_CENTERMARKSYMBOL_2
340
0
102
{BLKREFS
331
C5
102
}
  0
ENDTAB
  0
ENDSEC
  0
SECTION
  2
BLOCKS
  0
BLOCK
  5
20
330
1F
100
AcDbEntity
  8
0
100
AcDbBlockBegin
  2
*Model_Space
 70
     0
 10
0.0
 20
0.0
 30
0.0
  3
*Model_Space
  1

  0
ENDBLK
  5
21
330
1F
100
AcDbEntity
  8
0
100
AcDbBlockEnd
  0
BLOCK
  5
1C
330
1B
100
AcDbEntity
 67
     1
  8
0
100
AcDbBlockBegin
  2
*Paper_Space
 70
     0
 10
0.0
 20
0.0
 30
0.0
  3
*Paper_Space
  1

  0
ENDBLK
  5
1D
330
1B
100
AcDbEntity
 67
     1
  8
0
100
AcDbBlockEnd
  0
BLOCK
  5
24
330
23
100
AcDbEntity
  8
0
100
AcDbBlockBegin
  2
*Paper_Space0
 70
     0
 10
0.0
 20
0.0
 30
0.0
  3
*Paper_Space0
  1

  0
ENDBLK
  5
25
330
23
100
AcDbEntity
  8
0
100
AcDbBlockEnd
  0
BLOCK
  5
A3
330
A2
100
AcDbEntity
  8
0
100
AcDbBlockBegin
  2
SW_CENTERMARKSYMBOL_0
 70
     0
 10
0.0
 20
0.0
 30
0.0
  3
SW_CENTERMARKSYMBOL_0
  1

  0
LINE
  5
A5
330
A2
100
AcDbEntity
  8
0
  6
Continuous
 62
     0
370
    18
100
AcDbLine
 10
0.0
 20
0.0
 30
0.0
 11
0.0
 21
2.5
 31
0.0
  0
LINE
  5
A6
330
A2
100
AcDbEntity
  8
0
  6
Continuous
 62
     0
370
    18
100
AcDbLine
 10
0.0
 20
0.0
 30
0.0
 11
-2.5
 21
0.0
 31
0.0
  0
LINE
  5
A7
330
A2
100
AcDbEntity
  8
0
  6
Continuous
 62
     0
370
    18
100
AcDbLine
 10
0.0
 20
0.0
 30
0.0
 11
0.0
 21
-2.5
 31
0.0
  0
LINE
  5
A8
330
A2
100
AcDbEntity
  8
0
  6
Continuous
 62
     0
370
    18
100
AcDbLine
 10
0.0
 20
0.0
 30
0.0
 11
2.5
 21
0.0
 31
0.0
  0
LINE
  5
A9
330
A2
100
AcDbEntity
  8
0
  6
Continuous
 62
     0
370
    18
100
AcDbLine
 10
0.0
 20
2.5
 30
0.0
 11
0.0
 21
4.0
 31
0.0
  0
LINE
  5
AA
330
A2
100
AcDbEntity
  8
0
  6
Continuous
 62
     0
370
    18
100
AcDbLine
 10
-2.5
 20
0.0
 30
0.0
 11
-4.0
 21
0.0
 31
0.0
  0
LINE
  5
AB
330
A2
100
AcDbEntity
  8
0
  6
Continuous
 62
     0
370
    18
100
AcDbLine
 10
0.0
 20
-2.5
 30
0.0
 11
0.0
 21
-4.0
 31
0.0
  0
LINE
  5
AC
330
A2
100
AcDbEntity
  8
0
  6
Continuous
 62
     0
370
    18
100
AcDbLine
 10
2.5
 20
0.0
 30
0.0
 11
4.0
 21
0.0
 31
0.0
  0
ENDBLK
  5
A4
330
A2
100
AcDbEntity
  8
0
100
AcDbBlockEnd
  0
BLOCK
  5
AF
330
AE
100
AcDbEntity
  8
0
100
AcDbBlockBegin
  2
SW_CENTERMARKSYMBOL_1
 70
     0
 10
0.0
 20
0.0
 30
0.0
  3
SW_CENTERMARKSYMBOL_1
  1

  0
LINE
  5
B1
330
AE
100
AcDbEntity
  8
0
  6
Continuous
 62
     0
370
    18
100
AcDbLine
 10
0.0
 20
0.0
 30
0.0
 11
0.0
 21
2.5
 31
0.0
  0
LINE
  5
B2
330
AE
100
AcDbEntity
  8
0
  6
Continuous
 62
     0
370
    18
100
AcDbLine
 10
0.0
 20
0.0
 30
0.0
 11
-2.5
 21
0.0
 31
0.0
  0
LINE
  5
B3
330
AE
100
AcDbEntity
  8
0
  6
Continuous
 62
     0
370
    18
100
AcDbLine
 10
0.0
 20
0.0
 30
0.0
 11
0.0
 21
-2.5
 31
0.0
  0
LINE
  5
B4
330
AE
100
AcDbEntity
  8
0
  6
Continuous
 62
     0
370
    18
100
AcDbLine
 10
0.0
 20
0.0
 30
0.0
 11
2.5
 21
0.0
 31
0.0
  0
LINE
  5
B5
330
AE
100
AcDbEntity
  8
0
  6
Continuous
 62
     0
370
    18
100
AcDbLine
 10
0.0
 20
2.5
 30
0.0
 11
0.0
 21
4.0
 31
0.0
  0
LINE
  5
B6
330
AE
100
AcDbEntity
  8
0
  6
Continuous
 62
     0
370
    18
100
AcDbLine
 10
-2.5
 20
0.0
 30
0.0
 11
-4.0
 21
0.0
 31
0.0
  0
LINE
  5
B7
330
AE
100
AcDbEntity
  8
0
  6
Continuous
 62
     0
370
    18
100
AcDbLine
 10
0.0
 20
-2.5
 30
0.0
 11
0.0
 21
-4.0
 31
0.0
  0
LINE
  5
B8
330
AE
100
AcDbEntity
  8
0
  6
Continuous
 62
     0
370
    18
100
AcDbLine
 10
2.5
 20
0.0
 30
0.0
 11
4.0
 21
0.0
 31
0.0
  0
ENDBLK
  5
B0
330
AE
100
AcDbEntity
  8
0
100
AcDbBlockEnd
  0
BLOCK
  5
BB
330
BA
100
AcDbEntity
  8
0
100
AcDbBlockBegin
  2
SW_CENTERMARKSYMBOL_2
 70
     0
 10
0.0
 20
0.0
 30
0.0
  3
SW_CENTERMARKSYMBOL_2
  1

  0
LINE
  5
BD
330
BA
100
AcDbEntity
  8
0
  6
Continuous
 62
     0
370
    18
100
AcDbLine
 10
0.0
 20
0.0
 30
0.0
 11
0.0
 21
2.5
 31
0.0
  0
LINE
  5
BE
330
BA
100
AcDbEntity
  8
0
  6
Continuous
 62
     0
370
    18
100
AcDbLine
 10
0.0
 20
0.0
 30
0.0
 11
-2.5
 21
0.0
 31
0.0
  0
LINE
  5
BF
330
BA
100
AcDbEntity
  8
0
  6
Continuous
 62
     0
370
    18
100
AcDbLine
 10
0.0
 20
0.0
 30
0.0
 11
0.0
 21
-2.5
 31
0.0
  0
LINE
  5
C0
330
BA
100
AcDbEntity
  8
0
  6
Continuous
 62
     0
370
    18
100
AcDbLine
 10
0.0
 20
0.0
 30
0.0
 11
2.5
 21
0.0
 31
0.0
  0
LINE
  5
C1
330
BA
100
AcDbEntity
  8
0
  6
Continuous
 62
     0
370
    18
100
AcDbLine
 10
0.0
 20
2.5
 30
0.0
 11
0.0
 21
4.0
 31
0.0
  0
LINE
  5
C2
330
BA
100
AcDbEntity
  8
0
  6
Continuous
 62
     0
370
    18
100
AcDbLine
 10
-2.5
 20
0.0
 30
0.0
 11
-4.0
 21
0.0
 31
0.0
  0
LINE
  5
C3
330
BA
100
AcDbEntity
  8
0
  6
Continuous
 62
     0
370
    18
100
AcDbLine
 10
0.0
 20
-2.5
 30
0.0
 11
0.0
 21
-4.0
 31
0.0
  0
LINE
  5
C4
330
BA
100
AcDbEntity
  8
0
  6
Continuous
 62
     0
370
    18
100
AcDbLine
 10
2.5
 20
0.0
 30
0.0
 11
4.0
 21
0.0
 31
0.0
  0
ENDBLK
  5
BC
330
BA
100
AcDbEntity
  8
0
100
AcDbBlockEnd
  0
ENDSEC
  0
SECTION
  2
ENTITIES
  0
ARC
  5
73
330
1F
100
AcDbEntity
  8
0
  6
Continuous
 62
     7
370
    25
100
AcDbCircle
 10
145.9810992937
 20
537.8796039726
 30
0.0
 40
56.92692210743503
100
AcDbArc
 50
221.8894319631
 51
272.4863155434
  0
ARC
  5
74
330
1F
100
AcDbEntity
  8
0
  6
Continuous
 62
     7
370
    25
100
AcDbCircle
 10
107.3248959217
 20
503.2082443163
 30
0.0
 40
5.000000000000021
100
AcDbArc
 50
126.3639082152
 51
221.8894319631
  0
ARC
  5
75
330
1F
100
AcDbEntity
  8
0
  6
Continuous
 62
     7
370
    25
100
AcDbCircle
 10
107.3248959217
 20
503.2082443163
 30
0.0
 40
4.999999999999984
100
AcDbArc
 50
41.8894319631
 51
126.3639082152
  0
ARC
  5
76
330
1F
100
AcDbEntity
  8
0
  6
Continuous
 62
     7
370
    25
100
AcDbCircle
 10
145.9810992937
 20
537.8796039726
 30
0.0
 40
46.92692210743504
100
AcDbArc
 50
221.8894319631
 51
272.4863155434
  0
SPLINE
  5
77
330
1F
100
AcDbEntity
  8
0
  6
Continuous
 62
     7
370
    25
100
AcDbSpline
210
0.0
220
0.0
230
1.0
 70
     8
 71
     3
 72
    64
 73
    60
 74
     0
 42
0.00000001
 43
0.00000001
 40
0.0
 40
0.0
 40
0.0
 40
0.0
 40
0.0039062500000025
 40
0.0039062500000025
 40
0.0048828125000028
 40
0.0048828125000028
 40
0.0058593750000031
 40
0.0058593750000031
 40
0.007812500000003
 40
0.007812500000003
 40
0.0117187500000028
 40
0.0117187500000028
 40
0.0156250000000027
 40
0.0156250000000027
 40
0.0312500000000027
 40
0.0312500000000027
 40
0.0625000000000027
 40
0.0625000000000027
 40
0.1250000000000021
 40
0.1250000000000021
 40
0.1875000000000015
 40
0.1875000000000015
 40
0.2031250000000013
 40
0.2031250000000013
 40
0.2187500000000011
 40
0.2187500000000011
 40
0.2500000000000007
 40
0.2500000000000007
 40
0.3125000000000001
 40
0.3125000000000001
 40
0.3437499999999998
 40
0.3437499999999998
 40
0.3749999999999996
 40
0.3749999999999996
 40
0.4374999999999996
 40
0.4374999999999996
 40
0.4999999999999997
 40
0.4999999999999997
 40
0.5624999999999997
 40
0.5624999999999997
 40
0.6249999999999997
 40
0.6249999999999997
 40
0.6874999999999997
 40
0.6874999999999997
 40
0.7499999999999996
 40
0.7499999999999996
 40
0.8124999999999996
 40
0.8124999999999996
 40
0.8749999999999996
 40
0.8749999999999996
 40
0.9374999999999996
 40
0.9374999999999996
 40
0.9687499999999988
 40
0.9687499999999988
 40
0.9843749999999989
 40
0.9843749999999989
 40
0.9921874999999996
 40
0.9921874999999996
 40
1.0
 40
1.0
 40
1.0
 40
1.0
 10
188.4581888818944
 20
524.9297441237586
 30
0.0
 10
188.4581888818944
 20
524.8843835568946
 30
0.0
 10
188.4581821820945
 20
524.8304778857845
 30
0.0
 10
188.4581906506328
 20
524.781594553058
 30
0.0
 10
188.4581928913944
 20
524.7747249165947
 30
0.0
 10
188.4581851768995
 20
524.7434643735713
 30
0.0
 10
188.4581744718091
 20
524.7201987704857
 30
0.0
 10
188.4580914402958
 20
524.658067881935
 30
0.0
 10
188.4579653653524
 20
524.6203756285
 30
0.0
 10
188.4573726680388
 20
524.5014354854202
 30
0.0
 10
188.4567067482852
 20
524.4193480960009
 30
0.0
 10
188.4548429788722
 20
524.2580432517562
 30
0.0
 10
188.453637012823
 20
524.1778480999042
 30
0.0
 10
188.446184816224
 20
523.7738539454791
 30
0.0
 10
188.4357735055899
 20
523.4474761681024
 30
0.0
 10
188.3902366972689
 20
522.4615846216603
 30
0.0
 10
188.3409001974318
 20
521.7941127529925
 30
0.0
 10
188.1272761112531
 20
519.7587862267739
 30
0.0
 10
187.8986828597521
 20
518.3619896922842
 30
0.0
 10
187.205288658087
 20
515.483253802563
 30
0.0
 10
186.7414486592035
 20
514.0079677778481
 30
0.0
 10
185.9659691369488
 20
512.139912942027
 30
0.0
 10
185.8019154854403
 20
511.767077151915
 30
0.0
 10
185.4501010578497
 20
511.0151524355895
 30
0.0
 10
185.2604089135446
 20
510.6322560406222
 30
0.0
 10
184.6808438548815
 20
509.5270745396455
 30
0.0
 10
184.2657382635838
 20
508.819565149716
 30
0.0
 10
182.9895547385229
 20
506.8257974528871
 30
0.0
 10
182.1066966057047
 20
505.6791895258901
 30
0.0
 10
180.7591402667159
 20
504.1150051203359
 30
0.0
 10
180.3170195122356
 20
503.6322937678573
 30
0.0
 10
179.3951170136717
 20
502.6807794105482
 30
0.0
 10
178.9205375019419
 20
502.2176977246939
 30
0.0
 10
177.4670000862952
 20
500.8774448593148
 30
0.0
 10
176.448919965778
 20
500.0409707943023
 30
0.0
 10
174.380366669976
 20
498.5194806072061
 30
0.0
 10
173.3139896302167
 20
497.8228648854887
 30
0.0
 10
171.2162568493826
 20
496.5823162240416
 30
0.0
 10
170.1900230358155
 20
496.0404484402284
 30
0.0
 10
168.0878160003153
 20
495.0322060525646
 30
0.0
 10
167.0396431644702
 20
494.5793277580866
 30
0.0
 10
164.86736203416
 20
493.7467195441475
 30
0.0
 10
163.7414795191046
 20
493.3670108548843
 30
0.0
 10
161.5153000497321
 20
492.7206051465396
 30
0.0
 10
160.3873197074817
 20
492.4458606092212
 30
0.0
 10
158.2206493903943
 20
491.9959415571883
 30
0.0
 10
157.1792198899339
 20
491.8197562919406
 30
0.0
 10
155.1487658417781
 20
491.5309032962571
 30
0.0
 10
154.1667145388092
 20
491.41931482524
 30
0.0
 10
152.2754836170288
 20
491.2412378589221
 30
0.0
 10
151.3695204232127
 20
491.1750359027525
 30
0.0
 10
150.0582120847984
 20
491.0954448624708
 30
0.0
 10
149.6296257312526
 20
491.0722379864227
 30
0.0
 10
149.008356374736
 20
491.0413870876993
 30
0.0
 10
148.8054579908249
 20
491.0317907875157
 30
0.0
 10
148.4949726849905
 20
491.017740221642
 30
0.0
 10
148.3896712980233
 20
491.0130793204045
 30
0.0
 10
148.1979526956639
 20
491.004694684275
 30
0.0
 10
148.110706807617
 20
491.000934829552
 30
0.0
 10
148.0168255252199
 20
490.9968583492458
 30
0.0
  0
LINE
  5
78
330
1F
100
AcDbEntity
  8
0
  6
Continuous
 62
     7
370
    25
100
AcDbLine
 10
188.4581888819
 20
537.3654917452
 30
0.0
 11
188.4581888819
 21
524.9297441238
 31
0.0
  0
ARC
  5
79
330
1F
100
AcDbEntity
  8
0
  6
Continuous
 62
     7
370
    25
100
AcDbCircle
 10
183.4581888819
 20
537.3654917452
 30
0.0
 40
5.0
100
AcDbArc
 50
0.0
 51
90.0
  0
LINE
  5
7A
330
1F
100
AcDbEntity
  8
0
  6
Continuous
 62
     7
370
    25
100
AcDbLine
 10
183.4581888819
 20
542.3654917452
 30
0.0
 11
135.7462791783
 21
542.3654917452
 31
0.0
  0
ARC
  5
7B
330
1F
100
AcDbEntity
  8
0
  6
Continuous
 62
     7
370
    25
100
AcDbCircle
 10
135.7462791783
 20
584.4176113189
 30
0.0
 40
42.05211957370909
100
AcDbArc
 50
190.5838249353
 51
270.0
  0
ARC
  5
7C
330
1F
100
AcDbEntity
  8
0
  6
Continuous
 62
     7
370
    25
100
AcDbCircle
 10
128.7527752608
 20
583.1108559975
 30
0.0
 40
34.93757766903638
100
AcDbArc
 50
67.6003964251
 51
190.5838249353
  0
LINE
  5
7D
330
1F
100
AcDbEntity
  8
0
  6
Continuous
 62
     7
370
    25
100
AcDbLine
 10
142.0662276407
 20
615.412346971
 30
0.0
 11
173.791824837
 21
602.3362562158
 31
0.0
  0
ARC
  5
7E
330
1F
100
AcDbEntity
  8
0
  6
Continuous
 62
     7
370
    25
100
AcDbCircle
 10
171.8865049396
 20
597.7135128649
 30
0.0
 40
5.000000000000023
100
AcDbArc
 50
337.6003964251
 51
67.6003964251
  0
ARC
  5
7F
330
1F
100
AcDbEntity
  8
0
  6
Continuous
 62
     7
370
    25
100
AcDbCircle
 10
171.8865049396
 20
597.7135128649
 30
0.0
 40
5.000000000000081
100
AcDbArc
 50
247.6003964251
 51
337.6003964251
  0
LINE
  5
80
330
1F
100
AcDbEntity
  8
0
  6
Continuous
 62
     7
370
    25
100
AcDbLine
 10
138.2555878459
 20
606.1668602691
 30
0.0
 11
169.9811850422
 21
593.0907695139
 31
0.0
  0
ARC
  5
81
330
1F
100
AcDbEntity
  8
0
  6
Continuous
 62
     7
370
    25
100
AcDbCircle
 10
128.7527752608
 20
583.1108559975
 30
0.0
 40
24.93757766903633
100
AcDbArc
 50
67.6003964251
 51
190.5838249353
  0
ARC
  5
82
330
1F
100
AcDbEntity
  8
0
  6
Continuous
 62
     7
370
    25
100
AcDbCircle
 10
135.7462791783
 20
584.4176113189
 30
0.0
 40
32.05211957370909
100
AcDbArc
 50
190.5838249353
 51
270.0
  0
LINE
  5
83
330
1F
100
AcDbEntity
  8
0
  6
Continuous
 62
     7
370
    25
100
AcDbLine
 10
183.4581888819
 20
552.3654917452
 30
0.0
 11
135.7462791783
 21
552.3654917452
 31
0.0
  0
ARC
  5
84
330
1F
100
AcDbEntity
  8
0
  6
Continuous
 62
     7
370
    25
100
AcDbCircle
 10
183.4581888819
 20
557.3654917452
 30
0.0
 40
5.0
100
AcDbArc
 50
270.0
 51
0.0
  0
LINE
  5
85
330
1F
100
AcDbEntity
  8
0
  6
Continuous
 62
     7
370
    25
100
AcDbLine
 10
188.4581888819
 20
611.495455578
 30
0.0
 11
188.4581888819
 21
557.3654917452
 31
0.0
  0
ARC
  5
86
330
1F
100
AcDbEntity
  8
0
  6
Continuous
 62
     7
370
    25
100
AcDbCircle
 10
193.4581888819
 20
611.495455578
 30
0.0
 40
5.000000000000114
100
AcDbArc
 50
90.0
 51
180.0
  0
ARC
  5
87
330
1F
100
AcDbEntity
  8
0
  6
Continuous
 62
     7
370
    25
100
AcDbCircle
 10
193.4581888819
 20
611.495455578
 30
0.0
 40
5.000000000000114
100
AcDbArc
 50
0.0
 51
90.0
  0
LINE
  5
88
330
1F
100
AcDbEntity
  8
0
  6
Continuous
 62
     7
370
    25
100
AcDbLine
 10
198.4581888819
 20
611.495455578
 30
0.0
 11
198.4581888819
 21
524.9297441238
 31
0.0
  0
CIRCLE
  5
89
330
1F
100
AcDbEntity
  8
0
  6
Continuous
 62
     7
370
    25
100
AcDbCircle
 10
193.4581888819
 20
611.495455578
 30
0.0
 40
1.500000000000114
  0
CIRCLE
  5
8A
330
1F
100
AcDbEntity
  8
0
  6
Continuous
 62
     7
370
    25
100
AcDbCircle
 10
109.1681888819
 20
605.745455578
 30
0.0
 40
1.499999999999886
  0
CIRCLE
  5
8B
330
1F
100
AcDbEntity
  8
0
  6
Continuous
 62
     7
370
    25
100
AcDbCircle
 10
148.2681888819
 20
485.995455578
 30
0.0
 40
1.5
  0
SPLINE
  5
8C
330
1F
100
AcDbEntity
  8
0
  6
Continuous
 62
     7
370
    25
100
AcDbSpline
210
0.0
220
0.0
230
1.0
 70
     8
 71
     3
 72
    62
 73
    58
 74
     0
 42
0.00000001
 43
0.00000001
 40
0.0
 40
0.0
 40
0.0
 40
0.0
 40
0.0039062499999976
 40
0.0039062499999976
 40
0.0048828124999974
 40
0.0048828124999974
 40
0.0058593749999972
 40
0.0058593749999972
 40
0.0078124999999973
 40
0.0078124999999973
 40
0.0156249999999975
 40
0.0156249999999975
 40
0.0312499999999976
 40
0.0312499999999976
 40
0.0624999999999976
 40
0.0624999999999976
 40
0.1249999999999981
 40
0.1249999999999981
 40
0.1874999999999987
 40
0.1874999999999987
 40
0.2031249999999988
 40
0.2031249999999988
 40
0.218749999999999
 40
0.218749999999999
 40
0.2499999999999993
 40
0.2499999999999993
 40
0.3124999999999992
 40
0.3124999999999992
 40
0.3437499999999992
 40
0.3437499999999992
 40
0.3749999999999992
 40
0.3749999999999992
 40
0.4374999999999993
 40
0.4374999999999993
 40
0.4999999999999993
 40
0.4999999999999993
 40
0.5624999999999994
 40
0.5624999999999994
 40
0.6249999999999996
 40
0.6249999999999996
 40
0.6874999999999998
 40
0.6874999999999998
 40
0.7499999999999999
 40
0.7499999999999999
 40
0.8125
 40
0.8125
 40
0.8750000000000001
 40
0.8750000000000001
 40
0.9375000000000003
 40
0.9375000000000003
 40
0.9687500000000006
 40
0.9687500000000006
 40
0.9843750000000008
 40
0.9843750000000008
 40
0.9921875000000004
 40
0.9921875000000004
 40
1.0
 40
1.0
 40
1.0
 40
1.0
 10
198.4581888818944
 20
524.9297441237586
 30
0.0
 10
198.4581888818944
 20
524.8834335538021
 30
0.0
 10
198.4581825185148
 20
524.8294021506773
 30
0.0
 10
198.4581903789526
 20
524.7840289841571
 30
0.0
 10
198.4581930368837
 20
524.7740805629484
 30
0.0
 10
198.4581844224037
 20
524.7391731157899
 30
0.0
 10
198.4581738998264
 20
524.7130887863653
 30
0.0
 10
198.4580657949557
 20
524.6321959855052
 30
0.0
 10
198.4578945078015
 20
524.581240590158
 30
0.0
 10
198.4566401821141
 20
524.329527492609
 30
0.0
 10
198.4542601604375
 20
524.1194061705363
 30
0.0
 10
198.4428167131023
 20
523.4990406489737
 30
0.0
 10
198.4294536934596
 20
523.0798302691614
 30
0.0
 10
198.3709268305729
 20
521.8126984369742
 30
0.0
 10
198.3073196696221
 20
520.9508173472713
 30
0.0
 10
198.0305468515215
 20
518.3138344653632
 30
0.0
 10
197.7321320453293
 20
516.4831686174489
 30
0.0
 10
196.8157507901196
 20
512.6786666448262
 30
0.0
 10
196.1944622569974
 20
510.6971565451414
 30
0.0
 10
195.1474790621354
 20
508.1750757369996
 30
0.0
 10
194.923737567615
 20
507.6664273738958
 30
0.0
 10
194.4434738812624
 20
506.6399710725005
 30
0.0
 10
194.1888830576531
 20
506.1259706029625
 30
0.0
 10
193.3923125677405
 20
504.6069781162411
 30
0.0
 10
192.8322789335442
 20
503.6537269887952
 30
0.0
 10
191.1236245466976
 20
500.9843147493782
 30
0.0
 10
189.9373637576773
 20
499.4476048733853
 30
0.0
 10
188.2081119642458
 20
497.4403650940139
 30
0.0
 10
187.6291083829756
 20
496.8081938047773
 30
0.0
 10
186.4469049070337
 20
495.5880175037352
 30
0.0
 10
185.8385027800084
 20
494.9942911729535
 30
0.0
 10
183.9673936558585
 20
493.2690109441242
 30
0.0
 10
182.6681072518035
 20
492.2016508872636
 30
0.0
 10
180.0114912576057
 20
490.2476209020282
 30
0.0
 10
178.6700655319372
 20
489.3725505732874
 30
0.0
 10
176.0407232169296
 20
487.8176208323927
 30
0.0
 10
174.7476847000826
 20
487.1356962643223
 30
0.0
 10
172.1790792915187
 20
485.9037639159081
 30
0.0
 10
170.8757120137135
 20
485.3402598261914
 30
0.0
 10
168.1892672036805
 20
484.310579098445
 30
0.0
 10
166.8079638920428
 20
483.8443812302178
 30
0.0
 10
164.0257797782383
 20
483.0365309568812
 30
0.0
 10
162.6525823640047
 20
482.7029260700091
 30
0.0
 10
160.0217326453075
 20
482.1566180312907
 30
0.0
 10
158.7668198664674
 20
481.9449256299775
 30
0.0
 10
156.378010931737
 20
481.6050929617429
 30
0.0
 10
155.2371415311202
 20
481.4758734354025
 30
0.0
 10
153.07994944968
 20
481.2727537543504
 30
0.0
 10
152.0604103438611
 20
481.1985670605074
 30
0.0
 10
150.621533225436
 20
481.111233118262
 30
0.0
 10
150.1564024254708
 20
481.0860746655499
 30
0.0
 10
149.4889190440575
 20
481.0529288778436
 30
0.0
 10
149.2708703473812
 20
481.0426181670028
 30
0.0
 10
148.9403759389041
 20
481.0276621179727
 30
0.0
 10
148.8304242388623
 20
481.0227964645147
 30
0.0
 10
148.6310460057088
 20
481.014076841502
 30
0.0
 10
148.5424481452517
 20
481.0102589917784
 30
0.0
 10
148.4506332714247
 20
481.0062722383446
 30
0.0
  0
LINE
  5
8D
330
1F
100
AcDbEntity
  8
0
  6
Continuous
 62
     7
370
    25
100
AcDbLine
 10
161.7205606768
 20
534.1877632703
 30
0.0
 11
138.7478042665
 21
534.1877632703
 31
0.0
  0
SPLINE
  5
8E
330
1F
100
AcDbEntity
  8
0
  6
Continuous
 62
     7
370
    25
100
AcDbSpline
210
0.0
220
0.0
230
1.0
 70
     8
 71
     3
 72
    21
 73
    17
 74
     0
 42
0.00000001
 43
0.00000001
 40
0.0
 40
0.0
 40
0.0
 40
0.0
 40
0.1520231242097778
 40
0.2226153567400662
 40
0.2898702815236969
 40
0.3547002730196123
 40
0.4170546844775308
 40
0.4778610191098807
 40
0.5375658416729672
 40
0.5959606978106292
 40
0.6524884897032006
 40
0.7081448520510552
 40
0.7635632459649436
 40
0.8198083971271093
 40
0.877656518310004
 40
1.0
 40
1.0
 40
1.0
 40
1.0
 10
138.7478042665098
 20
534.187763270297
 30
0.0
 10
134.1410009438852
 20
534.1572709802144
 30
0.0
 10
127.3955802014204
 20
534.5730106953832
 30
0.0
 10
118.717247640552
 20
535.9632341852918
 30
0.0
 10
112.7519138460568
 20
537.4484713213736
 30
0.0
 10
107.174373658929
 20
539.3667885355138
 30
0.0
 10
101.9744705237461
 20
541.7051010565891
 30
0.0
 10
97.13244049873018
 20
544.4175004053066
 30
0.0
 10
92.7334134474615
 20
547.5986716414131
 30
0.0
 10
88.74628642548547
 20
551.0937170498748
 30
0.0
 10
85.33571277622686
 20
554.9901906201922
 30
0.0
 10
82.36200703782843
 20
559.1191472192315
 30
0.0
 10
79.99302319757524
 20
563.6176469440884
 30
0.0
 10
78.1429418891396
 20
568.4182690825892
 30
0.0
 10
76.33475404366543
 20
575.3669274733221
 30
0.0
 10
75.93572137434172
 20
580.8486861429703
 30
0.0
 10
75.88722734343291
 20
584.5483401933739
 30
0.0
  0
SPLINE
  5
8F
330
1F
100
AcDbEntity
  8
0
  6
Continuous
 62
     7
370
    25
100
AcDbSpline
210
0.0
220
0.0
230
1.0
 70
     8
 71
     3
 72
    21
 73
    17
 74
     0
 42
0.00000001
 43
0.00000001
 40
0.0
 40
0.0
 40
0.0
 40
0.0
 40
0.132352136289379
 40
0.1939283064054551
 40
0.2537087534281597
 40
0.3126710761619987
 40
0.3703832076482857
 40
0.4285083654185279
 40
0.4873295082897845
 40
0.5468041709694891
 40
0.6061290386416907
 40
0.6665284855827733
 40
0.727914854306842
 40
0.791497909542264
 40
0.8580227595914859
 40
1.0
 40
1.0
 40
1.0
 40
1.0
 10
75.88722734343291
 20
584.5483401933739
 30
0.0
 10
75.91464584880515
 20
587.8138109011886
 30
0.0
 10
76.19468263505337
 20
592.6347417091648
 30
0.0
 10
77.66102376969349
 20
598.7445871111593
 30
0.0
 10
79.04240451848653
 20
602.990464084147
 30
0.0
 10
80.8851994469308
 20
606.9583217977687
 30
0.0
 10
83.16307623912995
 20
610.641042090324
 30
0.0
 10
85.81125660838889
 20
614.0636372069773
 30
0.0
 10
88.86773830282415
 20
617.1876907266618
 30
0.0
 10
92.25863701756823
 20
619.9949550711793
 30
0.0
 10
95.9927035598416
 20
622.3915484216675
 30
0.0
 10
99.94585950048595
 20
624.5155881258697
 30
0.0
 10
104.2483720817063
 20
626.1209205792223
 30
0.0
 10
108.7893470309476
 20
627.479891890193
 30
0.0
 10
115.4183201972497
 20
628.691459135017
 30
0.0
 10
120.5720457429802
 20
629.0586275013237
 30
0.0
 10
124.0843427280483
 20
629.0595581420919
 30
0.0
  0
SPLINE
  5
90
330
1F
100
AcDbEntity
  8
0
  6
Continuous
 62
     7
370
    25
100
AcDbSpline
210
0.0
220
0.0
230
1.0
 70
     8
 71
     3
 72
    18
 73
    14
 74
     0
 42
0.00000001
 43
0.00000001
 40
0.2926167430301318
 40
0.2926167430301318
 40
0.2926167430301318
 40
0.2926167430301318
 40
0.4405842471277427
 40
0.5097380945481216
 40
0.5762475565285465
 40
0.6407980517614817
 40
0.7033651628099447
 40
0.76471460841231
 40
0.8251124009960213
 40
0.8847017736719154
 40
0.9426105728614027
 40
0.9999717272337656
 40
1.0
 40
1.0
 40
1.0
 40
1.0
 10
124.0843427280483
 20
629.0595581420919
 30
0.0
 10
127.2665189080839
 20
629.0108411523495
 30
0.0
 10
131.9484645892942
 20
628.8251923889942
 30
0.0
 10
137.9847730846696
 20
627.853785493412
 30
0.0
 10
142.1639838271186
 20
626.7862747812184
 30
0.0
 10
146.1394006071399
 20
625.5244711378788
 30
0.0
 10
149.8912442048717
 20
623.9642096798542
 30
0.0
 10
153.3862059101418
 20
622.0716929195285
 30
0.0
 10
156.6308443389925
 20
619.8950810126164
 30
0.0
 10
159.6447249824691
 20
617.5224187196322
 30
0.0
 10
162.3063122959445
 20
614.848672355078
 30
0.0
 10
163.8662486109861
 20
612.9130238600486
 30
0.0
 10
164.5898634074337
 20
611.9111350976992
 30
0.0
 10
164.5902198817768
 20
611.9106415101752
 30
0.0
  0
ARC
  5
91
330
1F
100
AcDbEntity
  8
0
  6
Continuous
 62
     7
370
    25
100
AcDbCircle
 10
168.6436375998
 20
614.8380644046
 30
0.0
 40
4.999999999999935
100
AcDbArc
 50
215.8372306677
 51
0.0
  0
LINE
  5
92
330
1F
100
AcDbEntity
  8
0
  6
Continuous
 62
     7
370
    25
100
AcDbLine
 10
173.6436375998
 20
614.8380644046
 30
0.0
 11
173.6436375998
 21
626.495455578
 31
0.0
  0
LINE
  5
93
330
1F
100
AcDbEntity
  8
0
  6
Continuous
 62
     7
370
    25
100
AcDbLine
 10
173.6436375998
 20
626.495455578
 30
0.0
 11
213.2681888819
 21
626.495455578
 31
0.0
  0
LINE
  5
94
330
1F
100
AcDbEntity
  8
0
  6
Continuous
 62
     7
370
    25
100
AcDbLine
 10
213.2681888819
 20
626.495455578
 30
0.0
 11
213.2681888819
 21
520.3656478857
 31
0.0
  0
SPLINE
  5
95
330
1F
100
AcDbEntity
  8
0
  6
Continuous
 62
     7
370
    25
100
AcDbSpline
210
0.0
220
0.0
230
1.0
 70
     8
 71
     3
 72
    21
 73
    17
 74
     0
 42
0.00000001
 43
0.00000001
 40
0.0
 40
0.0
 40
0.0
 40
0.0
 40
0.1472784141243828
 40
0.2174378874902521
 40
0.2849792502273731
 40
0.3501694054220257
 40
0.4133908060339494
 40
0.4746619166026718
 40
0.5344747054856074
 40
0.5930776356688879
 40
0.6506319267794309
 40
0.7080030509317712
 40
0.7651868475829586
 40
0.8226647419098314
 40
0.8804263918364529
 40
1.0
 40
1.0
 40
1.0
 40
1.0
 10
146.5202401639457
 20
470.0851991677329
 30
0.0
 10
142.1716082969774
 20
470.0966335560436
 30
0.0
 10
135.7379461430558
 20
470.4272945619533
 30
0.0
 10
127.4295181387989
 20
471.8374157956264
 30
0.0
 10
121.6074762357447
 20
473.2827995473789
 30
0.0
 10
116.1002473044871
 20
475.0830255943061
 30
0.0
 10
110.9217377499841
 20
477.2396184787069
 30
0.0
 10
106.0895759921072
 20
479.7656684766637
 30
0.0
 10
101.6347756453277
 20
482.6641493147088
 30
0.0
 10
97.52644736124437
 20
485.8625740677073
 30
0.0
 10
93.82693359687977
 20
489.4212978501756
 30
0.0
 10
90.47403611537283
 20
493.256469912973
 30
0.0
 10
87.60342799748484
 20
497.4595685208736
 30
0.0
 10
85.07538800155211
 20
501.8938681403684
 30
0.0
 10
82.47256473675786
 20
508.3388569984688
 30
0.0
 10
81.08398709878254
 20
513.408314902492
 30
0.0
 10
80.614791445997
 20
516.9201350651688
 30
0.0
  0
LINE
  5
96
330
1F
100
AcDbEntity
  8
0
  6
Continuous
 62
     7
370
    25
100
AcDbLine
 10
80.614791446
 20
516.9201350652
 30
0.0
 11
120.7590222152
 21
516.9201350652
 31
0.0
  0
SPLINE
  5
97
330
1F
100
AcDbEntity
  8
0
  6
Continuous
 62
     7
370
    25
100
AcDbSpline
210
0.0
220
0.0
230
1.0
 70
     8
 71
     3
 72
    13
 73
     9
 74
     0
 42
0.00000001
 43
0.00000001
 40
0.0
 40
0.0
 40
0.0
 40
0.0
 40
0.2064785221783751
 40
0.315868157635676
 40
0.4334638156995917
 40
0.5603617794154173
 40
0.696645824312919
 40
1.0
 40
1.0
 40
1.0
 40
1.0
 10
120.7590222152278
 20
516.9201350651688
 30
0.0
 10
121.3933773966216
 20
514.8692547705559
 30
0.0
 10
123.0491386707693
 20
511.9600855307913
 30
0.0
 10
126.3681187330455
 20
508.8842074827078
 30
0.0
 10
129.4987238374289
 20
506.9440904896385
 30
0.0
 10
133.1129794265353
 20
505.3229126180037
 30
0.0
 10
138.8127527299083
 20
503.8268509551527
 30
0.0
 10
143.3746246747658
 20
503.4148503899369
 30
0.0
 10
146.5202401639457
 20
503.4185325010662
 30
0.0
  0
SPLINE
  5
98
330
1F
100
AcDbEntity
  8
0
  6
Continuous
 62
     7
370
    25
100
AcDbSpline
210
0.0
220
0.0
230
1.0
 70
     8
 71
     3
 72
    13
 73
     9
 74
     0
 42
0.00000001
 43
0.00000001
 40
0.0
 40
0.0
 40
0.0
 40
0.0
 40
0.3064584545178517
 40
0.4395753385084679
 40
0.5636785181069832
 40
0.6788039857487278
 40
0.785880911205598
 40
1.0
 40
1.0
 40
1.0
 40
1.0
 10
146.5202401639457
 20
503.4185325010662
 30
0.0
 10
149.9956124548971
 20
503.5094154089158
 30
0.0
 10
155.1010151010689
 20
503.8028871341799
 30
0.0
 10
161.1798590689435
 20
506.0308698704207
 30
0.0
 10
164.9072474152329
 20
508.1320356736524
 30
0.0
 10
167.9035288827622
 20
510.751408351215
 30
0.0
 10
170.9562200689917
 20
514.7702191472871
 30
0.0
 10
171.6788227808736
 20
518.5472329052573
 30
0.0
 10
171.7205606767662
 20
520.9666094241431
 30
0.0
  0
LINE
  5
99
330
1F
100
AcDbEntity
  8
0
  6
Continuous
 62
     7
370
    25
100
AcDbLine
 10
171.7205606768
 20
520.9666094241
 30
0.0
 11
171.7205606768
 21
524.1877632703
 31
0.0
  0
ARC
  5
9A
330
1F
100
AcDbEntity
  8
0
  6
Continuous
 62
     7
370
    25
100
AcDbCircle
 10
161.7205606768
 20
524.1877632703
 30
0.0
 40
10.0
100
AcDbArc
 50
0.0
 51
90.0
  0
LINE
  5
9B
330
1F
100
AcDbEntity
  8
0
  6
Continuous
 62
     7
370
    25
100
AcDbLine
 10
161.7205606768
 20
559.8287889113
 30
0.0
 11
138.7478042665
 21
559.8287889113
 31
0.0
  0
ARC
  5
9C
330
1F
100
AcDbEntity
  8
0
  6
Continuous
 62
     7
370
    25
100
AcDbCircle
 10
161.7205606768
 20
569.8287889113
 30
0.0
 40
10.0
100
AcDbArc
 50
270.0
 51
0.0
  0
LINE
  5
9D
330
1F
100
AcDbEntity
  8
0
  6
Continuous
 62
     7
370
    25
100
AcDbLine
 10
171.7205606768
 20
574.6124427575
 30
0.0
 11
171.7205606768
 21
569.8287889113
 31
0.0
  0
SPLINE
  5
9E
330
1F
100
AcDbEntity
  8
0
  6
Continuous
 62
     7
370
    25
100
AcDbSpline
210
0.0
220
0.0
230
1.0
 70
     8
 71
     3
 72
    13
 73
     9
 74
     0
 42
0.00000001
 43
0.00000001
 40
0.0
 40
0.0
 40
0.0
 40
0.0
 40
0.2981935559338449
 40
0.4311933849340813
 40
0.5586648640997155
 40
0.6772411198992835
 40
0.7863737239475379
 40
1.0
 40
1.0
 40
1.0
 40
1.0
 10
141.5122273434329
 20
595.7262248087585
 30
0.0
 10
145.5805281225635
 20
595.7447026025328
 30
0.0
 10
151.5047246879896
 20
595.1224770727247
 30
0.0
 10
158.7393618764955
 20
592.5818126477641
 30
0.0
 10
163.2507881588857
 20
589.9885879989786
 30
0.0
 10
166.996124265013
 20
586.8541265409548
 30
0.0
 10
170.6294783502217
 20
581.9650433556424
 30
0.0
 10
171.7817023198797
 20
577.5436108449048
 30
0.0
 10
171.7205606767662
 20
574.6124427574765
 30
0.0
  0
SPLINE
  5
9F
330
1F
100
AcDbEntity
  8
0
  6
Continuous
 62
     7
370
    25
100
AcDbSpline
210
0.0
220
0.0
230
1.0
 70
     8
 71
     3
 72
    13
 73
     9
 74
     0
 42
0.00000001
 43
0.00000001
 40
0.0
 40
0.0
 40
0.0
 40
0.0
 40
0.228228433926585
 40
0.3349159553105595
 40
0.4471605026710143
 40
0.5659398876743441
 40
0.6961305399509005
 40
1.0
 40
1.0
 40
1.0
 40
1.0
 10
117.4337017024073
 20
577.4970581420919
 30
0.0
 10
117.441286881029
 20
580.075057717507
 30
0.0
 10
118.1151455635289
 20
583.9510647565436
 30
0.0
 10
120.8449101387582
 20
588.2966264807918
 30
0.0
 10
123.6099622831657
 20
591.0035909731009
 30
0.0
 10
127.1448918272059
 20
593.1517700767741
 30
0.0
 10
133.1007689213043
 20
595.2483324336821
 30
0.0
 10
138.0674957208529
 20
595.7223540490139
 30
0.0
 10
141.5122273434329
 20
595.7262248087585
 30
0.0
  0
SPLINE
  5
A0
330
1F
100
AcDbEntity
  8
0
  6
Continuous
 62
     7
370
    25
100
AcDbSpline
210
0.0
220
0.0
230
1.0
 70
     8
 71
     3
 72
    13
 73
     9
 74
     0
 42
0.00000001
 43
0.00000001
 40
0.0
 40
0.0
 40
0.0
 40
0.0
 40
0.2827622186017688
 40
0.4070456054477104
 40
0.527609378537624
 40
0.641843835870883
 40
0.7557468230650968
 40
1.0
 40
1.0
 40
1.0
 40
1.0
 10
138.7478042665098
 20
559.8287889113226
 30
0.0
 10
135.8090140027622
 20
559.8115169875637
 30
0.0
 10
131.5297207928959
 20
560.2816947994403
 30
0.0
 10
126.3863933587297
 20
562.3037101810372
 30
0.0
 10
123.215656594338
 20
564.3343787375264
 30
0.0
 10
120.6053799510331
 20
566.9037046206795
 30
0.0
 10
118.0276824612817
 20
571.1616715279876
 30
0.0
 10
117.4283151649669
 20
574.9673370237626
 30
0.0
 10
117.4337017024073
 20
577.4970581420919
 30
0.0
  0
SPLINE
  5
A1
330
1F
100
AcDbEntity
  8
0
  6
Continuous
 62
     7
370
    25
100
AcDbSpline
210
0.0
220
0.0
230
1.0
 70
     8
 71
     3
 72
    21
 73
    17
 74
     0
 42
0.00000001
 43
0.00000001
 40
0.0
 40
0.0
 40
0.0
 40
0.0
 40
0.117404908341645
 40
0.1737854329683095
 40
0.2292023133860516
 40
0.2847465529770427
 40
0.3400971571282707
 40
0.3961463024062012
 40
0.4536309312618875
 40
0.5129214036329444
 40
0.5740889667534119
 40
0.6382182988483648
 40
0.7051428823422478
 40
0.7749664289691622
 40
0.8466639220375933
 40
1.0
 40
1.0
 40
1.0
 40
1.0
 10
213.2681888818944
 20
520.3656478856816
 30
0.0
 10
213.2257560253865
 20
516.7119667221547
 30
0.0
 10
212.7291779838313
 20
511.2697396482176
 30
0.0
 10
210.6591595765528
 20
504.408513250501
 30
0.0
 10
208.5134964295728
 20
499.6372764017034
 30
0.0
 10
205.805061717892
 20
495.2058546295727
 30
0.0
 10
202.6847342032759
 20
491.0261811711001
 30
0.0
 10
198.9889302383043
 20
487.2596148028599
 30
0.0
 10
194.8559318251048
 20
483.7874096252998
 30
0.0
 10
190.2133659026001
 20
480.7382143103929
 30
0.0
 10
185.194000001145
 20
477.9040547298045
 30
0.0
 10
179.6298989029048
 20
475.6506437297701
 30
0.0
 10
173.7032547907278
 20
473.6211056715821
 30
0.0
 10
167.3945015049576
 20
472.0282960530623
 30
0.0
 10
158.320521234375
 20
470.5100086319603
 30
0.0
 10
151.2992004226672
 20
470.1027923387682
 30
0.0
 10
146.5202401639457
 20
470.0851991677329
 30
0.0
  0
INSERT
  5
AD
330
1F
100
AcDbEntity
  8
0
  6
Continuous
 62
     7
370
    18
100
AcDbBlockReference
  2
SW_CENTERMARKSYMBOL_0
 10
193.4581888819
 20
611.495455578
 30
0.0
  0
INSERT
  5
B9
330
1F
100
AcDbEntity
  8
0
  6
Continuous
 62
     7
370
    18
100
AcDbBlockReference
  2
SW_CENTERMARKSYMBOL_1
 10
109.1681888819
 20
605.745455578
 30
0.0
  0
INSERT
  5
C5
330
1F
100
AcDbEntity
  8
0
  6
Continuous
 62
     7
370
    18
100
AcDbBlockReference
  2
SW_CENTERMARKSYMBOL_2
 10
148.2681888819
 20
485.995455578
 30
0.0
  0
ENDSEC
  0
SECTION
  2
OBJECTS
  0
DICTIONARY
  5
C
330
0
100
AcDbDictionary
281
     1
  3
ACAD_GROUP
350
D
  3
ACAD_LAYOUT
350
1A
  3
ACAD_MLINESTYLE
350
17
  3
ACAD_PLOTSETTINGS
350
19
  3
ACAD_PLOTSTYLENAME
350
E
  3
ACAD_SCALELIST
350
47
  3
DWGPROPS
350
C6
  0
DICTIONARY
  5
D
102
{ACAD_REACTORS
330
C
102
}
330
C
100
AcDbDictionary
281
     1
  0
DICTIONARY
  5
1A
102
{ACAD_REACTORS
330
C
102
}
330
C
100
AcDbDictionary
281
     1
  3
Layout1
350
1E
  3
Layout2
350
26
  3
Model
350
22
  0
DICTIONARY
  5
17
102
{ACAD_REACTORS
330
C
102
}
330
C
100
AcDbDictionary
281
     1
  3
Standard
350
18
  0
DICTIONARY
  5
19
102
{ACAD_REACTORS
330
C
102
}
330
C
100
AcDbDictionary
281
     1
  0
ACDBDICTIONARYWDFLT
  5
E
102
{ACAD_REACTORS
330
C
102
}
330
C
100
AcDbDictionary
281
     1
  3
Normal
350
F
100
AcDbDictionaryWithDefault
340
F
  0
DICTIONARY
  5
47
102
{ACAD_REACTORS
330
C
102
}
330
C
100
AcDbDictionary
281
     1
  3
A0
350
48
  3
A1
350
49
  3
A2
350
4A
  3
A3
350
4B
  3
A4
350
4C
  3
A5
350
4D
  3
A6
350
4E
  3
A7
350
4F
  3
A8
350
50
  3
A9
350
51
  3
B0
350
52
  3
B1
350
53
  3
B2
350
54
  3
B3
350
55
  3
B4
350
56
  3
B5
350
57
  3
B6
350
58
  3
B7
350
59
  3
B8
350
5A
  3
B9
350
5B
  3
C0
350
5C
  3
C1
350
5D
  3
C2
350
5E
  3
C3
350
5F
  3
C4
350
60
  3
C5
350
61
  3
C6
350
62
  3
C7
350
63
  3
C8
350
64
  3
C9
350
65
  3
D0
350
66
  3
D1
350
67
  3
D2
350
68
  0
XRECORD
  5
C6
102
{ACAD_REACTORS
330
C
102
}
330
C
100
AcDbXrecord
280
     1
  1
DWGPROPS COOKIE
  2

  3

  4

  6

  7

  8
potylitcyn
  9

300
=
301
=
302
=
303
=
304
=
305
=
306
=
307
=
308
=
309
=
 40
0.0
 41
2460003.682624491
 42
2460003.682624792
  1

 90
        0
  0
LAYOUT
  5
1E
102
{ACAD_REACTORS
330
1A
102
}
330
1A
100
AcDbPlotSettings
  1

  2
none_device
  4

  6

 40
0.0
 41
0.0
 42
0.0
 43
0.0
 44
0.0
 45
0.0
 46
0.0
 47
0.0
 48
0.0
 49
0.0
140
0.0
141
0.0
142
1.0
143
1.0
 70
   688
 72
     1
 73
     0
 74
     5
  7

 75
    16
147
1.0
148
0.0
149
0.0
100
AcDbLayout
  1
Layout1
 70
     1
 71
     1
 10
0.0
 20
0.0
 11
420.0
 21
297.0
 12
0.0
 22
0.0
 32
0.0
 14
1.0000000000E+20
 24
1.0000000000E+20
 34
1.0000000000E+20
 15
-1.0000000000E+20
 25
-1.0000000000E+20
 35
-1.0000000000E+20
146
0.0
 13
0.0
 23
0.0
 33
0.0
 16
1.0
 26
0.0
 36
0.0
 17
0.0
 27
1.0
 37
0.0
 76
     0
330
1B
  0
LAYOUT
  5
26
102
{ACAD_REACTORS
330
1A
102
}
330
1A
100
AcDbPlotSettings
  1

  2
none_device
  4

  6

 40
0.0
 41
0.0
 42
0.0
 43
0.0
 44
0.0
 45
0.0
 46
0.0
 47
0.0
 48
0.0
 49
0.0
140
0.0
141
0.0
142
1.0
143
1.0
 70
   688
 72
     1
 73
     0
 74
     5
  7

 75
    16
147
1.0
148
0.0
149
0.0
100
AcDbLayout
  1
Layout2
 70
     1
 71
     2
 10
0.0
 20
0.0
 11
0.0
 21
0.0
 12
0.0
 22
0.0
 32
0.0
 14
0.0
 24
0.0
 34
0.0
 15
0.0
 25
0.0
 35
0.0
146
0.0
 13
0.0
 23
0.0
 33
0.0
 16
1.0
 26
0.0
 36
0.0
 17
0.0
 27
1.0
 37
0.0
 76
     0
330
23
  0
LAYOUT
  5
22
102
{ACAD_REACTORS
330
1A
102
}
330
1A
100
AcDbPlotSettings
  1

  2
none_device
  4
Letter_(8.50_x_11.00_Inches)
  6

 40
6.35
 41
6.35
 42
6.35000508
 43
6.35000508
 44
215.9
 45
279.4
 46
0.0
 47
0.0
 48
0.0
 49
0.0
140
0.0
141
0.0
142
1.0
143
1.0
 70
  1712
 72
     1
 73
     0
 74
     0
  7

 75
     0
147
1.0
148
0.0
149
0.0
100
AcDbLayout
  1
Model
 70
     1
 71
     0
 10
0.0
 20
0.0
 11
700.0
 21
700.0
 12
0.0
 22
0.0
 32
0.0
 14
0.0
 24
0.0
 34
0.0
 15
700.0
 25
700.0
 35
0.0
146
0.0
 13
0.0
 23
0.0
 33
0.0
 16
1.0
 26
0.0
 36
0.0
 17
0.0
 27
1.0
 37
0.0
 76
     0
330
1F
331
29
  0
MLINESTYLE
  5
18
102
{ACAD_REACTORS
330
17
102
}
330
17
100
AcDbMlineStyle
  2
Standard
 70
     0
  3

 62
   256
 51
90.0
 52
90.0
 71
     2
 49
0.5
 62
   256
  6
BYLAYER
 49
-0.5
 62
   256
  6
BYLAYER
  0
ACDBPLACEHOLDER
  5
F
102
{ACAD_REACTORS
330
E
102
}
330
E
  0
SCALE
  5
48
102
{ACAD_REACTORS
330
47
102
}
330
47
100
AcDbScale
 70
     0
300
1:1
140
1.0
141
1.0
290
     1
  0
SCALE
  5
49
102
{ACAD_REACTORS
330
47
102
}
330
47
100
AcDbScale
 70
     0
300
1:2
140
1.0
141
2.0
290
     0
  0
SCALE
  5
4A
102
{ACAD_REACTORS
330
47
102
}
330
47
100
AcDbScale
 70
     0
300
1:4
140
1.0
141
4.0
290
     0
  0
SCALE
  5
4B
102
{ACAD_REACTORS
330
47
102
}
330
47
100
AcDbScale
 70
     0
300
1:5
140
1.0
141
5.0
290
     0
  0
SCALE
  5
4C
102
{ACAD_REACTORS
330
47
102
}
330
47
100
AcDbScale
 70
     0
300
1:8
140
1.0
141
8.0
290
     0
  0
SCALE
  5
4D
102
{ACAD_REACTORS
330
47
102
}
330
47
100
AcDbScale
 70
     0
300
1:10
140
1.0
141
10.0
290
     0
  0
SCALE
  5
4E
102
{ACAD_REACTORS
330
47
102
}
330
47
100
AcDbScale
 70
     0
300
1:16
140
1.0
141
16.0
290
     0
  0
SCALE
  5
4F
102
{ACAD_REACTORS
330
47
102
}
330
47
100
AcDbScale
 70
     0
300
1:20
140
1.0
141
20.0
290
     0
  0
SCALE
  5
50
102
{ACAD_REACTORS
330
47
102
}
330
47
100
AcDbScale
 70
     0
300
1:30
140
1.0
141
30.0
290
     0
  0
SCALE
  5
51
102
{ACAD_REACTORS
330
47
102
}
330
47
100
AcDbScale
 70
     0
300
1:40
140
1.0
141
40.0
290
     0
  0
SCALE
  5
52
102
{ACAD_REACTORS
330
47
102
}
330
47
100
AcDbScale
 70
     0
300
1:50
140
1.0
141
50.0
290
     0
  0
SCALE
  5
53
102
{ACAD_REACTORS
330
47
102
}
330
47
100
AcDbScale
 70
     0
300
1:100
140
1.0
141
100.0
290
     0
  0
SCALE
  5
54
102
{ACAD_REACTORS
330
47
102
}
330
47
100
AcDbScale
 70
     0
300
2:1
140
2.0
141
1.0
290
     0
  0
SCALE
  5
55
102
{ACAD_REACTORS
330
47
102
}
330
47
100
AcDbScale
 70
     0
300
4:1
140
4.0
141
1.0
290
     0
  0
SCALE
  5
56
102
{ACAD_REACTORS
330
47
102
}
330
47
100
AcDbScale
 70
     0
300
8:1
140
8.0
141
1.0
290
     0
  0
SCALE
  5
57
102
{ACAD_REACTORS
330
47
102
}
330
47
100
AcDbScale
 70
     0
300
10:1
140
10.0
141
1.0
290
     0
  0
SCALE
  5
58
102
{ACAD_REACTORS
330
47
102
}
330
47
100
AcDbScale
 70
     0
300
100:1
140
100.0
141
1.0
290
     0
  0
SCALE
  5
59
102
{ACAD_REACTORS
330
47
102
}
330
47
100
AcDbScale
 70
     0
300
1/128" = 1'-0"
140
0.0078125
141
12.0
290
     0
  0
SCALE
  5
5A
102
{ACAD_REACTORS
330
47
102
}
330
47
100
AcDbScale
 70
     0
300
1/64" = 1'-0"
140
0.015625
141
12.0
290
     0
  0
SCALE
  5
5B
102
{ACAD_REACTORS
330
47
102
}
330
47
100
AcDbScale
 70
     0
300
1/32" = 1'-0"
140
0.03125
141
12.0
290
     0
  0
SCALE
  5
5C
102
{ACAD_REACTORS
330
47
102
}
330
47
100
AcDbScale
 70
     0
300
1/16" = 1'-0"
140
0.0625
141
12.0
290
     0
  0
SCALE
  5
5D
102
{ACAD_REACTORS
330
47
102
}
330
47
100
AcDbScale
 70
     0
300
3/32" = 1'-0"
140
0.09375
141
12.0
290
     0
  0
SCALE
  5
5E
102
{ACAD_REACTORS
330
47
102
}
330
47
100
AcDbScale
 70
     0
300
1/8" = 1'-0"
140
0.125
141
12.0
290
     0
  0
SCALE
  5
5F
102
{ACAD_REACTORS
330
47
102
}
330
47
100
AcDbScale
 70
     0
300
3/16" = 1'-0"
140
0.1875
141
12.0
290
     0
  0
SCALE
  5
60
102
{ACAD_REACTORS
330
47
102
}
330
47
100
AcDbScale
 70
     0
300
1/4" = 1'-0"
140
0.25
141
12.0
290
     0
  0
SCALE
  5
61
102
{ACAD_REACTORS
330
47
102
}
330
47
100
AcDbScale
 70
     0
300
3/8" = 1'-0"
140
0.375
141
12.0
290
     0
  0
SCALE
  5
62
102
{ACAD_REACTORS
330
47
102
}
330
47
100
AcDbScale
 70
     0
300
1/2" = 1'-0"
140
0.5
141
12.0
290
     0
  0
SCALE
  5
63
102
{ACAD_REACTORS
330
47
102
}
330
47
100
AcDbScale
 70
     0
300
3/4" = 1'-0"
140
0.75
141
12.0
290
     0
  0
SCALE
  5
64
102
{ACAD_REACTORS
330
47
102
}
330
47
100
AcDbScale
 70
     0
300
1" = 1'-0"
140
1.0
141
12.0
290
     0
  0
SCALE
  5
65
102
{ACAD_REACTORS
330
47
102
}
330
47
100
AcDbScale
 70
     0
300
1-1/2" = 1'-0"
140
1.5
141
12.0
290
     0
  0
SCALE
  5
66
102
{ACAD_REACTORS
330
47
102
}
330
47
100
AcDbScale
 70
     0
300
3" = 1'-0"
140
3.0
141
12.0
290
     0
  0
SCALE
  5
67
102
{ACAD_REACTORS
330
47
102
}
330
47
100
AcDbScale
 70
     0
300
6" = 1'-0"
140
6.0
141
12.0
290
     0
  0
SCALE
  5
68
102
{ACAD_REACTORS
330
47
102
}
330
47
100
AcDbScale
 70
     0
300
1'-0" = 1'-0"
140
12.0
141
12.0
290
     0
  0
ENDSEC
  0
EOF
