G04 Layer_Physical_Order=2*
G04 Layer_Color=16711680*
%FSLAX44Y44*%
%MOMM*%
G71*
G01*
G75*
%ADD10C,1.0000*%
%ADD11R,1.0000X1.3000*%
%ADD12R,1.3000X0.7000*%
%ADD13R,1.3000X1.0000*%
%ADD14R,0.6000X1.0000*%
%ADD15R,0.7000X1.3000*%
G04:AMPARAMS|DCode=16|XSize=3.2mm|YSize=1mm|CornerRadius=0.25mm|HoleSize=0mm|Usage=FLASHONLY|Rotation=0.000|XOffset=0mm|YOffset=0mm|HoleType=Round|Shape=RoundedRectangle|*
%AMROUNDEDRECTD16*
21,1,3.2000,0.5000,0,0,0.0*
21,1,2.7000,1.0000,0,0,0.0*
1,1,0.5000,1.3500,-0.2500*
1,1,0.5000,-1.3500,-0.2500*
1,1,0.5000,-1.3500,0.2500*
1,1,0.5000,1.3500,0.2500*
%
%ADD16ROUNDEDRECTD16*%
G04:AMPARAMS|DCode=17|XSize=0.4mm|YSize=2.5mm|CornerRadius=0.1mm|HoleSize=0mm|Usage=FLASHONLY|Rotation=180.000|XOffset=0mm|YOffset=0mm|HoleType=Round|Shape=RoundedRectangle|*
%AMROUNDEDRECTD17*
21,1,0.4000,2.3000,0,0,180.0*
21,1,0.2000,2.5000,0,0,180.0*
1,1,0.2000,-0.1000,1.1500*
1,1,0.2000,0.1000,1.1500*
1,1,0.2000,0.1000,-1.1500*
1,1,0.2000,-0.1000,-1.1500*
%
%ADD17ROUNDEDRECTD17*%
%ADD18C,0.4000*%
%ADD19C,1.0000*%
G36*
X25000Y88000D02*
X25000Y76000D01*
X17500D01*
X17500Y95500D01*
X25000Y88000D01*
D02*
G37*
G36*
X625000Y85000D02*
Y76000D01*
X617500D01*
Y92500D01*
X625000Y85000D01*
D02*
G37*
G36*
X230000Y99500D02*
X194500D01*
Y129000D01*
X230000D01*
Y99500D01*
D02*
G37*
D10*
X50000Y-5000D02*
D03*
X-50000D02*
D03*
X650000D02*
D03*
X550000D02*
D03*
X-550000D02*
D03*
X-650000D02*
D03*
D11*
X-599000Y95000D02*
D03*
X-579000D02*
D03*
X-599000Y70000D02*
D03*
X-579000D02*
D03*
X41000Y80000D02*
D03*
X21000D02*
D03*
X641000D02*
D03*
X621000D02*
D03*
D12*
X508000Y160300D02*
D03*
Y141300D02*
D03*
X-24000Y132500D02*
D03*
Y113500D02*
D03*
X230000Y80500D02*
D03*
Y99500D02*
D03*
X270000Y174500D02*
D03*
Y155500D02*
D03*
D13*
X450000Y174000D02*
D03*
Y154000D02*
D03*
D14*
X220500Y151000D02*
D03*
X239500D02*
D03*
X230000Y129000D02*
D03*
D15*
X175500Y100000D02*
D03*
X194500D02*
D03*
X175500Y125000D02*
D03*
X194500D02*
D03*
X309500Y155000D02*
D03*
X290500D02*
D03*
D16*
X350000Y100000D02*
D03*
Y125400D02*
D03*
Y150800D02*
D03*
Y23800D02*
D03*
Y49200D02*
D03*
Y176200D02*
D03*
Y74600D02*
D03*
X406000Y100000D02*
D03*
Y125400D02*
D03*
Y150800D02*
D03*
Y23800D02*
D03*
Y49200D02*
D03*
Y176200D02*
D03*
Y74600D02*
D03*
D17*
X-38500Y30000D02*
D03*
X-31500D02*
D03*
X-24500D02*
D03*
X-17500D02*
D03*
X-10500D02*
D03*
X-3500D02*
D03*
X3500D02*
D03*
X10500D02*
D03*
X17500D02*
D03*
X24500D02*
D03*
X31500D02*
D03*
X38500D02*
D03*
X561500D02*
D03*
X568500D02*
D03*
X575500D02*
D03*
X582500D02*
D03*
X589500D02*
D03*
X596500D02*
D03*
X603500D02*
D03*
X610500D02*
D03*
X617500D02*
D03*
X624500D02*
D03*
X631500D02*
D03*
X638500D02*
D03*
X-638500D02*
D03*
X-631500D02*
D03*
X-624500D02*
D03*
X-617500D02*
D03*
X-610500D02*
D03*
X-603500D02*
D03*
X-596500D02*
D03*
X-589500D02*
D03*
X-582500D02*
D03*
X-575500D02*
D03*
X-568500D02*
D03*
X-561500D02*
D03*
D18*
X603500Y88500D02*
X610500Y81500D01*
X550700Y141300D02*
X603500Y88500D01*
Y30000D02*
Y88500D01*
X610500Y30000D02*
Y81500D01*
X508000Y141300D02*
X550700D01*
X617500Y30000D02*
Y92500D01*
X508000Y160300D02*
Y176200D01*
X-600000Y70000D02*
X-599000Y71000D01*
X-600000Y70000D02*
X-596500Y66500D01*
X-599000Y71000D02*
Y95000D01*
X-580000Y70000D02*
X-575500Y65500D01*
X-579000Y70000D02*
Y95000D01*
X638500Y30000D02*
Y92500D01*
X554800Y176200D02*
X638500Y92500D01*
X452000Y124000D02*
X546899D01*
X438000Y138000D02*
X452000Y124000D01*
X383000Y138000D02*
X438000D01*
X546899Y124000D02*
X596500Y74399D01*
X24500Y30000D02*
Y88500D01*
X-10000Y123000D02*
X24500Y88500D01*
X-128899Y123000D02*
X-10000D01*
X3500Y77299D02*
Y96500D01*
X-16000Y116000D02*
X3500Y96500D01*
X-126000Y116000D02*
X-16000D01*
X-3000Y130000D02*
X38500Y88500D01*
X-131799Y130000D02*
X-3000D01*
X-280799Y-19000D02*
X-131799Y130000D01*
X-554000Y-19000D02*
X-280799D01*
X-267302Y-55000D02*
X-117302Y95000D01*
X-580000Y-55000D02*
X-267302D01*
X-624500Y-10500D02*
X-580000Y-55000D01*
X-617500Y-7400D02*
X-577900Y-47000D01*
X-267201Y-45000D02*
X-120201Y102000D01*
X-267201Y-45000D02*
X-267201D01*
X-269201Y-47000D02*
X-267201Y-45000D01*
X-577900Y-47000D02*
X-269201D01*
X-272101Y-40000D02*
X-123101Y109000D01*
X-575000Y-40000D02*
X-272101D01*
X-603500Y-11500D02*
X-575000Y-40000D01*
X-275000Y-33000D02*
X-126000Y116000D01*
X-589500Y-15199D02*
X-571698Y-33000D01*
X-275000D01*
X-277899Y-26000D02*
X-128899Y123000D01*
X-568799Y-26000D02*
X-277899D01*
X-575500Y-19299D02*
X-568799Y-26000D01*
X-561500Y-11500D02*
X-554000Y-19000D01*
X-561500Y-11500D02*
Y30000D01*
X-531201Y199000D02*
X131000D01*
X-568500Y161701D02*
X-531201Y199000D01*
X-568500Y30000D02*
Y161701D01*
X-534100Y206000D02*
X574899D01*
X-610500Y129601D02*
X-534100Y206000D01*
X-610500Y30000D02*
Y129601D01*
X-537000Y213000D02*
X577799D01*
X-631500Y118500D02*
X-537000Y213000D01*
X165000Y105000D02*
Y165000D01*
X131000Y199000D02*
X165000Y165000D01*
Y105000D02*
X170000Y100000D01*
X175500D01*
X577799Y213000D02*
X709000Y81799D01*
Y-18000D02*
Y81799D01*
X574899Y206000D02*
X702000Y78899D01*
X677000Y-50000D02*
X709000Y-18000D01*
X702000Y-15101D02*
Y78899D01*
X674100Y-43000D02*
X702000Y-15101D01*
X647000Y-36000D02*
X671201D01*
X631500Y-20500D02*
X647000Y-36000D01*
X631500Y-20500D02*
Y30000D01*
X695000Y-12201D02*
Y76000D01*
X671201Y-36000D02*
X695000Y-12201D01*
X515201Y-43000D02*
X674100D01*
X512301Y-50000D02*
X677000D01*
X450302Y12000D02*
X512301Y-50000D01*
X448401Y23800D02*
X515201Y-43000D01*
X556000Y-36000D02*
X589500Y-2500D01*
X518101Y-36000D02*
X556000D01*
X446101Y36000D02*
X518101Y-36000D01*
X589500Y-2500D02*
Y30000D01*
X568500Y-13500D02*
Y30000D01*
X553000Y-29000D02*
X568500Y-13500D01*
X521000Y-29000D02*
X553000D01*
X442800Y49200D02*
X521000Y-29000D01*
X383000Y12000D02*
X450302D01*
X406000Y23800D02*
X448401D01*
X384000Y36000D02*
X446101D01*
X371200Y23800D02*
X383000Y12000D01*
X350000Y23800D02*
X371200D01*
X370800Y49200D02*
X384000Y36000D01*
X350000Y49200D02*
X370800D01*
X406000D02*
X442800D01*
X175500Y125000D02*
Y165500D01*
X209000Y199000D01*
X572000D01*
X695000Y76000D01*
X270000Y141000D02*
Y155500D01*
X220500Y141000D02*
X270000D01*
X220500D02*
Y151000D01*
X309500Y152000D02*
X350000D01*
X309500D02*
Y155000D01*
X350000Y150800D02*
Y152000D01*
X270000Y155500D02*
X290500D01*
Y155000D02*
Y155500D01*
X206200Y176200D02*
X239500D01*
X240000D01*
X239500Y151000D02*
Y176200D01*
X194500Y129000D02*
X230000D01*
X194500Y100000D02*
X230000D01*
X194500D02*
Y125000D01*
X230000Y100000D02*
Y129000D01*
Y99500D02*
Y100000D01*
X194500Y125000D02*
Y129000D01*
X-596500Y63000D02*
Y66500D01*
Y30000D02*
Y63000D01*
X-589500Y56000D01*
Y30000D02*
Y56000D01*
X-582500Y67500D02*
X-580000Y70000D01*
X-582500Y30000D02*
Y67500D01*
X-575500Y30000D02*
Y65500D01*
X17500Y30000D02*
Y95000D01*
X38500Y30000D02*
Y88500D01*
X617500Y92500D02*
X624500Y85500D01*
Y30000D02*
Y85500D01*
X559200Y150800D02*
X617500Y92500D01*
X406000Y150800D02*
X559200D01*
X185000Y22899D02*
Y155000D01*
X146101Y-16000D02*
X185000Y22899D01*
X46000Y-16000D02*
X146101D01*
X166397Y-65000D02*
X305997Y74600D01*
X20100Y-65000D02*
X166397D01*
X-31500Y-13399D02*
X20100Y-65000D01*
X23000Y-58000D02*
X163497D01*
X-24500Y-10500D02*
X23000Y-58000D01*
X163497D02*
X308497Y87000D01*
X26100Y-51000D02*
X160598D01*
X-17500Y-7400D02*
X26100Y-51000D01*
X160598D02*
X311598Y100000D01*
X-10500Y-4399D02*
X29100Y-44000D01*
X157698D02*
X314698Y113000D01*
X29100Y-44000D02*
X157698D01*
X32000Y-37000D02*
X154799D01*
X-3500Y-1500D02*
X32000Y-37000D01*
X154799D02*
X317199Y125400D01*
X35201Y-30000D02*
X151899D01*
X24500Y-19299D02*
X35201Y-30000D01*
X149000Y-23000D02*
X230000Y58000D01*
X43101Y-23000D02*
X149000D01*
X151899Y-30000D02*
X319400Y137500D01*
X31500Y-11400D02*
X43101Y-23000D01*
X38500Y-8500D02*
X46000Y-16000D01*
X305997Y74600D02*
X350000D01*
X308497Y87000D02*
X372000D01*
X311598Y100000D02*
X350000D01*
X319400Y137500D02*
X372500D01*
X317199Y125400D02*
X350000D01*
X314698Y113000D02*
X373000D01*
X230000Y58000D02*
Y80500D01*
X-31500Y-13399D02*
Y30000D01*
X551000Y100000D02*
X575500Y75500D01*
X406000Y100000D02*
X551000D01*
X548400Y112600D02*
X582500Y78500D01*
X383000Y112600D02*
X548400D01*
X596500Y30000D02*
Y74399D01*
X350000Y100000D02*
X370400D01*
X383000Y112600D01*
X385000Y100000D02*
X406000D01*
X372000Y87000D02*
X385000Y100000D01*
X385400Y125400D02*
X406000D01*
X373000Y113000D02*
X385400Y125400D01*
X370400D02*
X383000Y138000D01*
X350000Y125400D02*
X370400D01*
X385800Y150800D02*
X406000D01*
X372500Y137500D02*
X385800Y150800D01*
X-10500Y-4399D02*
Y30000D01*
X-3500Y-1500D02*
Y30000D01*
X3500Y30000D02*
Y77299D01*
X10500Y30000D02*
Y70299D01*
X3500Y77299D02*
X10500Y70299D01*
X-631500Y30000D02*
Y118500D01*
X31500Y-11400D02*
Y30000D01*
X38500Y-8500D02*
Y30000D01*
X185000Y155000D02*
X206200Y176200D01*
X24500Y-19299D02*
Y30000D01*
X17500Y-12299D02*
X24500Y-19299D01*
X17500Y-12299D02*
Y30000D01*
X-17500Y-7400D02*
Y30000D01*
X-24500Y-10500D02*
Y30000D01*
X575500D02*
Y75500D01*
X582500Y30000D02*
Y78500D01*
X596500Y30000D02*
X596500Y30000D01*
X603500Y30000D02*
X603500Y30000D01*
X3500Y30000D02*
X3500Y30000D01*
X-3500Y30000D02*
X-3500Y30000D01*
X-3500Y30000D02*
Y74399D01*
X-38101Y109000D02*
X-3500Y74399D01*
X-123101Y109000D02*
X-38101D01*
X-17500Y30000D02*
Y78500D01*
X-41000Y102000D02*
X-17500Y78500D01*
X-24500Y30000D02*
Y75500D01*
X-44000Y95000D02*
X-24500Y75500D01*
X-117302Y95000D02*
X-44000D01*
X-120201Y102000D02*
X-41000D01*
X-624500Y-10500D02*
Y30000D01*
X-617500Y-7400D02*
Y30000D01*
X-589500Y-15199D02*
Y30000D01*
X-582500Y-12299D02*
Y30000D01*
Y-12299D02*
X-575500Y-19299D01*
X-603500Y-11500D02*
Y30000D01*
X-596500Y-8199D02*
X-589500Y-15199D01*
X-596500Y-8199D02*
Y30000D01*
X-575500Y-19299D02*
Y30000D01*
D19*
X508000Y176200D02*
X554800D01*
X406000D02*
X508000D01*
X239500D02*
X350000D01*
X406000D01*
M02*
