G04 Layer_Physical_Order=2*
G04 Layer_Color=16711680*
%FSLAX44Y44*%
%MOMM*%
G71*
G01*
G75*
%ADD10C,1.0000*%
%ADD11R,1.0000X1.3000*%
%ADD12R,1.3000X0.7000*%
%ADD13R,1.3000X1.0000*%
%ADD14R,0.6000X1.0000*%
%ADD15R,0.7000X1.3000*%
G04:AMPARAMS|DCode=16|XSize=3.2mm|YSize=1mm|CornerRadius=0.25mm|HoleSize=0mm|Usage=FLASHONLY|Rotation=0.000|XOffset=0mm|YOffset=0mm|HoleType=Round|Shape=RoundedRectangle|*
%AMROUNDEDRECTD16*
21,1,3.2000,0.5000,0,0,0.0*
21,1,2.7000,1.0000,0,0,0.0*
1,1,0.5000,1.3500,-0.2500*
1,1,0.5000,-1.3500,-0.2500*
1,1,0.5000,-1.3500,0.2500*
1,1,0.5000,1.3500,0.2500*
%
%ADD16ROUNDEDRECTD16*%
G04:AMPARAMS|DCode=17|XSize=0.4mm|YSize=2.5mm|CornerRadius=0.1mm|HoleSize=0mm|Usage=FLASHONLY|Rotation=180.000|XOffset=0mm|YOffset=0mm|HoleType=Round|Shape=RoundedRectangle|*
%AMROUNDEDRECTD17*
21,1,0.4000,2.3000,0,0,180.0*
21,1,0.2000,2.5000,0,0,180.0*
1,1,0.2000,-0.1000,1.1500*
1,1,0.2000,0.1000,1.1500*
1,1,0.2000,0.1000,-1.1500*
1,1,0.2000,-0.1000,-1.1500*
%
%ADD17ROUNDEDRECTD17*%
%ADD18C,0.4000*%
%ADD19C,1.0000*%
G36*
X766824Y294305D02*
X771243Y293121D01*
X775470Y291370D01*
X779432Y289082D01*
X783062Y286297D01*
X786297Y283062D01*
X789082Y279432D01*
X791370Y275470D01*
X793121Y271243D01*
X794305Y266824D01*
X794902Y262288D01*
Y260000D01*
Y-60000D01*
Y-62288D01*
X794305Y-66824D01*
X793121Y-71243D01*
X791370Y-75470D01*
X789082Y-79432D01*
X786297Y-83062D01*
X783062Y-86297D01*
X779432Y-89082D01*
X775470Y-91370D01*
X771243Y-93121D01*
X766824Y-94305D01*
X762288Y-94902D01*
X719517D01*
X718570Y-94714D01*
X717678Y-94344D01*
X716875Y-93808D01*
X716192Y-93125D01*
X715656Y-92322D01*
X715286Y-91430D01*
X715098Y-90483D01*
Y-85000D01*
X715073Y-84875D01*
X715092Y-84750D01*
X715043Y-83770D01*
X714952Y-83403D01*
Y-83025D01*
X714569Y-81103D01*
X714377Y-80639D01*
X714279Y-80146D01*
X713529Y-78335D01*
X713250Y-77918D01*
X713058Y-77454D01*
X711969Y-75824D01*
X711614Y-75469D01*
X711335Y-75051D01*
X709949Y-73665D01*
X709531Y-73386D01*
X709176Y-73031D01*
X707546Y-71942D01*
X707082Y-71750D01*
X706665Y-71471D01*
X704854Y-70721D01*
X704361Y-70623D01*
X703897Y-70431D01*
X701975Y-70048D01*
X701597D01*
X701230Y-69956D01*
X700250Y-69908D01*
X700125Y-69927D01*
X700000Y-69902D01*
X500000D01*
X499875Y-69927D01*
X499750Y-69908D01*
X498770Y-69956D01*
X498403Y-70048D01*
X498025D01*
X496103Y-70431D01*
X495639Y-70623D01*
X495146Y-70721D01*
X493335Y-71471D01*
X492918Y-71750D01*
X492454Y-71942D01*
X490824Y-73031D01*
X490469Y-73386D01*
X490051Y-73665D01*
X488665Y-75051D01*
X488386Y-75469D01*
X488031Y-75824D01*
X486942Y-77454D01*
X486750Y-77918D01*
X486471Y-78335D01*
X485721Y-80146D01*
X485623Y-80639D01*
X485431Y-81103D01*
X485048Y-83025D01*
Y-83403D01*
X484956Y-83770D01*
X484908Y-84750D01*
X484927Y-84875D01*
X484902Y-85000D01*
X484902Y-90483D01*
X484714Y-91430D01*
X484344Y-92322D01*
X483808Y-93125D01*
X483125Y-93808D01*
X482322Y-94344D01*
X481430Y-94714D01*
X480483Y-94902D01*
X119517D01*
X118570Y-94714D01*
X117678Y-94344D01*
X116875Y-93808D01*
X116192Y-93125D01*
X115656Y-92322D01*
X115286Y-91430D01*
X115098Y-90483D01*
Y-85000D01*
X115073Y-84875D01*
X115092Y-84750D01*
X115043Y-83770D01*
X114952Y-83403D01*
Y-83025D01*
X114569Y-81103D01*
X114377Y-80639D01*
X114279Y-80146D01*
X113529Y-78335D01*
X113250Y-77918D01*
X113058Y-77454D01*
X111969Y-75824D01*
X111614Y-75469D01*
X111335Y-75051D01*
X109949Y-73665D01*
X109531Y-73386D01*
X109176Y-73031D01*
X107546Y-71942D01*
X107082Y-71750D01*
X106665Y-71471D01*
X104854Y-70721D01*
X104361Y-70623D01*
X103897Y-70431D01*
X101975Y-70048D01*
X101597D01*
X101230Y-69956D01*
X100250Y-69908D01*
X100125Y-69927D01*
X100000Y-69902D01*
X-100000D01*
X-100125Y-69927D01*
X-100250Y-69908D01*
X-101230Y-69956D01*
X-101597Y-70048D01*
X-101975D01*
X-103897Y-70431D01*
X-104361Y-70623D01*
X-104854Y-70721D01*
X-106665Y-71471D01*
X-107082Y-71750D01*
X-107546Y-71942D01*
X-109176Y-73031D01*
X-109531Y-73386D01*
X-109949Y-73665D01*
X-111335Y-75051D01*
X-111614Y-75469D01*
X-111969Y-75824D01*
X-113058Y-77454D01*
X-113250Y-77918D01*
X-113529Y-78335D01*
X-114279Y-80146D01*
X-114377Y-80639D01*
X-114569Y-81103D01*
X-114952Y-83025D01*
Y-83403D01*
X-115044Y-83770D01*
X-115092Y-84750D01*
X-115073Y-84875D01*
X-115098Y-85000D01*
X-115098Y-90483D01*
X-115286Y-91430D01*
X-115656Y-92322D01*
X-116192Y-93125D01*
X-116875Y-93808D01*
X-117678Y-94344D01*
X-118570Y-94714D01*
X-119517Y-94902D01*
X-480483D01*
X-481430Y-94714D01*
X-482322Y-94344D01*
X-483125Y-93808D01*
X-483808Y-93125D01*
X-484344Y-92322D01*
X-484714Y-91430D01*
X-484902Y-90483D01*
Y-85000D01*
X-484927Y-84875D01*
X-484908Y-84750D01*
X-484957Y-83770D01*
X-485048Y-83403D01*
Y-83025D01*
X-485431Y-81103D01*
X-485623Y-80639D01*
X-485721Y-80146D01*
X-486471Y-78335D01*
X-486750Y-77918D01*
X-486942Y-77454D01*
X-488031Y-75824D01*
X-488386Y-75469D01*
X-488665Y-75051D01*
X-490051Y-73665D01*
X-490469Y-73386D01*
X-490824Y-73031D01*
X-492454Y-71942D01*
X-492918Y-71750D01*
X-493335Y-71471D01*
X-495146Y-70721D01*
X-495639Y-70623D01*
X-496103Y-70431D01*
X-498025Y-70048D01*
X-498403D01*
X-498770Y-69956D01*
X-499750Y-69908D01*
X-499875Y-69927D01*
X-500000Y-69902D01*
X-700000D01*
X-700125Y-69927D01*
X-700250Y-69908D01*
X-701230Y-69956D01*
X-701597Y-70048D01*
X-701975D01*
X-703897Y-70431D01*
X-704361Y-70623D01*
X-704854Y-70721D01*
X-706665Y-71471D01*
X-707082Y-71750D01*
X-707546Y-71942D01*
X-709176Y-73031D01*
X-709531Y-73386D01*
X-709949Y-73665D01*
X-711335Y-75051D01*
X-711614Y-75469D01*
X-711969Y-75824D01*
X-713058Y-77454D01*
X-713250Y-77918D01*
X-713529Y-78335D01*
X-714279Y-80146D01*
X-714377Y-80639D01*
X-714569Y-81103D01*
X-714952Y-83025D01*
Y-83403D01*
X-715044Y-83770D01*
X-715092Y-84750D01*
X-715073Y-84875D01*
X-715098Y-85000D01*
X-715098Y-90483D01*
X-715286Y-91430D01*
X-715656Y-92322D01*
X-716192Y-93125D01*
X-716875Y-93808D01*
X-717678Y-94344D01*
X-718570Y-94714D01*
X-719517Y-94902D01*
X-762288D01*
X-766824Y-94305D01*
X-771243Y-93121D01*
X-775470Y-91370D01*
X-779432Y-89082D01*
X-783062Y-86297D01*
X-786297Y-83062D01*
X-789082Y-79432D01*
X-791370Y-75470D01*
X-793121Y-71243D01*
X-794305Y-66824D01*
X-794902Y-62288D01*
Y-60000D01*
Y260000D01*
Y262288D01*
X-794305Y266824D01*
X-793121Y271243D01*
X-791370Y275470D01*
X-789082Y279432D01*
X-786297Y283062D01*
X-783062Y286297D01*
X-779432Y289082D01*
X-775470Y291370D01*
X-771243Y293121D01*
X-766824Y294305D01*
X-762288Y294902D01*
X762288D01*
X766824Y294305D01*
D02*
G37*
%LPC*%
G36*
X404000Y72600D02*
X386953D01*
Y72100D01*
X387142Y70664D01*
X387696Y69326D01*
X388577Y68177D01*
X389726Y67296D01*
X391064Y66742D01*
X392500Y66553D01*
X404000D01*
Y72600D01*
D02*
G37*
G36*
X-640500Y28000D02*
X-643578D01*
Y18500D01*
X-643268Y16939D01*
X-642384Y15616D01*
X-641061Y14732D01*
X-640500Y14620D01*
Y28000D01*
D02*
G37*
G36*
X559500Y45379D02*
X558939Y45268D01*
X557616Y44384D01*
X556732Y43061D01*
X556422Y41500D01*
Y32000D01*
X559500D01*
Y45379D01*
D02*
G37*
G36*
X425047Y72600D02*
X408000D01*
Y66553D01*
X419500D01*
X420936Y66742D01*
X422274Y67296D01*
X423423Y68177D01*
X424304Y69326D01*
X424858Y70664D01*
X425047Y72100D01*
Y72600D01*
D02*
G37*
G36*
X-40500Y45379D02*
X-41061Y45268D01*
X-42384Y44384D01*
X-43268Y43061D01*
X-43578Y41500D01*
Y32000D01*
X-40500D01*
Y45379D01*
D02*
G37*
G36*
X577799Y218098D02*
X-537000D01*
X-538951Y217710D01*
X-540605Y216605D01*
X-635105Y122105D01*
X-636210Y120451D01*
X-636598Y118500D01*
Y46319D01*
X-637500Y45578D01*
X-639500D01*
X-641061Y45268D01*
X-642384Y44384D01*
X-643268Y43061D01*
X-643578Y41500D01*
Y32000D01*
X-638500D01*
Y30000D01*
X-636598D01*
X-636579Y29901D01*
Y18500D01*
X-636500Y18103D01*
Y13601D01*
X-636000Y13191D01*
Y0D01*
X-629598D01*
Y-10500D01*
X-629210Y-12451D01*
X-628105Y-14105D01*
X-583605Y-58605D01*
X-581951Y-59710D01*
X-580000Y-60098D01*
X-267302D01*
X-265351Y-59710D01*
X-263697Y-58605D01*
X-115190Y89902D01*
X-46112D01*
X-29598Y73388D01*
Y46319D01*
X-30500Y45578D01*
X-32500D01*
X-34061Y45268D01*
X-35000Y44640D01*
X-35939Y45268D01*
X-36500Y45379D01*
Y41896D01*
X-36579Y41500D01*
Y30098D01*
X-36598Y30000D01*
X-38500D01*
Y28000D01*
X-43578D01*
Y18500D01*
X-43268Y16939D01*
X-42384Y15616D01*
X-41061Y14732D01*
X-39500Y14422D01*
X-37500D01*
X-36598Y13681D01*
Y-13399D01*
X-36210Y-15350D01*
X-35105Y-17004D01*
X11496Y-63605D01*
X13149Y-64710D01*
X15100Y-65098D01*
X171397D01*
X173348Y-64710D01*
X175002Y-63605D01*
X308109Y69502D01*
X331623D01*
X331696Y69326D01*
X332577Y68177D01*
X333726Y67296D01*
X335064Y66742D01*
X336500Y66553D01*
X363500D01*
X364936Y66742D01*
X365560Y67000D01*
X379000D01*
X379000Y86790D01*
X385649Y93440D01*
X388577Y93577D01*
X389726Y92696D01*
X391064Y92142D01*
X392500Y91953D01*
X419500D01*
X420936Y92142D01*
X422274Y92696D01*
X423423Y93577D01*
X424304Y94726D01*
X424377Y94902D01*
X548888D01*
X570402Y73388D01*
Y46319D01*
X569500Y45578D01*
X567500D01*
X565939Y45268D01*
X565000Y44640D01*
X564061Y45268D01*
X563500Y45379D01*
Y41896D01*
X563421Y41500D01*
Y30098D01*
X563402Y30000D01*
X561500D01*
Y28000D01*
X556422D01*
Y18500D01*
X556732Y16939D01*
X557616Y15616D01*
X558939Y14732D01*
X560500Y14422D01*
X562500D01*
X563402Y13681D01*
Y-11388D01*
X550888Y-23902D01*
X523112D01*
X446405Y52805D01*
X444751Y53910D01*
X442800Y54298D01*
X425000D01*
Y57000D01*
X421077D01*
X420936Y57058D01*
X419500Y57247D01*
X392500D01*
X391064Y57058D01*
X390923Y57000D01*
X365077Y57000D01*
X364936Y57058D01*
X363500Y57247D01*
X336500D01*
X335064Y57058D01*
X334923Y57000D01*
X334000D01*
Y56618D01*
X333726Y56504D01*
X332577Y55623D01*
X331696Y54474D01*
X331142Y53136D01*
X330953Y51700D01*
Y46700D01*
X331142Y45264D01*
X331696Y43926D01*
X332577Y42777D01*
X333726Y41896D01*
X334000Y41782D01*
Y31218D01*
X333726Y31104D01*
X332577Y30223D01*
X331696Y29074D01*
X331142Y27736D01*
X330953Y26300D01*
Y21300D01*
X331142Y19864D01*
X331696Y18526D01*
X332577Y17377D01*
X333726Y16496D01*
X335064Y15942D01*
X336500Y15753D01*
X363500D01*
X364936Y15942D01*
X366274Y16496D01*
X367423Y17377D01*
X370373Y17397D01*
X370417Y17373D01*
X379395Y8395D01*
X381049Y7290D01*
X383000Y6902D01*
X448190D01*
X508697Y-53605D01*
X510351Y-54710D01*
X512301Y-55098D01*
X677000D01*
X678951Y-54710D01*
X680605Y-53605D01*
X712605Y-21605D01*
X713710Y-19951D01*
X714098Y-18000D01*
Y81799D01*
X713710Y83750D01*
X712605Y85404D01*
X581404Y216605D01*
X579750Y217710D01*
X577799Y218098D01*
D02*
G37*
G36*
X-650000Y3069D02*
X-652088Y2794D01*
X-654035Y1988D01*
X-655706Y706D01*
X-656988Y-966D01*
X-657794Y-2912D01*
X-658069Y-5000D01*
X-657794Y-7088D01*
X-656988Y-9035D01*
X-655706Y-10706D01*
X-654035Y-11988D01*
X-652088Y-12794D01*
X-650000Y-13069D01*
X-647912Y-12794D01*
X-645965Y-11988D01*
X-644294Y-10706D01*
X-643012Y-9035D01*
X-642206Y-7088D01*
X-641931Y-5000D01*
X-642206Y-2912D01*
X-643012Y-966D01*
X-644294Y706D01*
X-645965Y1988D01*
X-647912Y2794D01*
X-650000Y3069D01*
D02*
G37*
G36*
X419500Y82647D02*
X408000D01*
Y76600D01*
X425047D01*
Y77100D01*
X424858Y78536D01*
X424304Y79874D01*
X423423Y81023D01*
X422274Y81904D01*
X420936Y82458D01*
X419500Y82647D01*
D02*
G37*
G36*
X404000D02*
X392500D01*
X391064Y82458D01*
X389726Y81904D01*
X388577Y81023D01*
X387696Y79874D01*
X387142Y78536D01*
X386953Y77100D01*
Y76600D01*
X404000D01*
Y82647D01*
D02*
G37*
G36*
X550000Y3069D02*
X547912Y2794D01*
X545965Y1988D01*
X544294Y706D01*
X543012Y-966D01*
X542206Y-2912D01*
X541931Y-5000D01*
X542206Y-7088D01*
X543012Y-9035D01*
X544294Y-10706D01*
X545965Y-11988D01*
X547912Y-12794D01*
X550000Y-13069D01*
X552088Y-12794D01*
X554035Y-11988D01*
X555706Y-10706D01*
X556988Y-9035D01*
X557794Y-7088D01*
X558069Y-5000D01*
X557794Y-2912D01*
X556988Y-966D01*
X555706Y706D01*
X554035Y1988D01*
X552088Y2794D01*
X550000Y3069D01*
D02*
G37*
G36*
X-50000D02*
X-52088Y2794D01*
X-54035Y1988D01*
X-55706Y706D01*
X-56988Y-966D01*
X-57794Y-2912D01*
X-58069Y-5000D01*
X-57794Y-7088D01*
X-56988Y-9035D01*
X-55706Y-10706D01*
X-54035Y-11988D01*
X-52088Y-12794D01*
X-50000Y-13069D01*
X-47912Y-12794D01*
X-45965Y-11988D01*
X-44294Y-10706D01*
X-43012Y-9035D01*
X-42206Y-7088D01*
X-41931Y-5000D01*
X-42206Y-2912D01*
X-43012Y-966D01*
X-44294Y706D01*
X-45965Y1988D01*
X-47912Y2794D01*
X-50000Y3069D01*
D02*
G37*
%LPD*%
G36*
X612402Y90388D02*
Y46319D01*
X611500Y45578D01*
X609500D01*
X607939Y45268D01*
X607000Y44640D01*
X606061Y45268D01*
X604500Y45578D01*
X602500D01*
X601598Y46319D01*
Y74399D01*
X601210Y76350D01*
X600105Y78004D01*
X550504Y127605D01*
X548850Y128710D01*
X546899Y129098D01*
X454112D01*
X441605Y141605D01*
X439951Y142710D01*
X438000Y143098D01*
X428392D01*
X426978Y145598D01*
X427041Y145702D01*
X498500D01*
Y143300D01*
X508000D01*
X517500D01*
Y145702D01*
X557088D01*
X612402Y90388D01*
D02*
G37*
G36*
X25000Y88000D02*
X25000Y76000D01*
X17500D01*
X17500Y95500D01*
X25000Y88000D01*
D02*
G37*
G36*
X625000Y85000D02*
Y76000D01*
X617500D01*
Y92500D01*
X625000Y85000D01*
D02*
G37*
G36*
X-33500Y114946D02*
X-36000Y113610D01*
X-36150Y113710D01*
X-38101Y114098D01*
X-123101D01*
X-125051Y113710D01*
X-126705Y112605D01*
X-274212Y-34902D01*
X-572888D01*
X-598402Y-9388D01*
Y13681D01*
X-597500Y14422D01*
X-595500D01*
X-593939Y14732D01*
X-593000Y15360D01*
X-592061Y14732D01*
X-590500Y14422D01*
X-588500D01*
X-587598Y13681D01*
Y-12299D01*
X-587210Y-14250D01*
X-586105Y-15904D01*
X-579105Y-22904D01*
X-572404Y-29605D01*
X-570750Y-30710D01*
X-568799Y-31098D01*
X-277899D01*
X-275949Y-30710D01*
X-274295Y-29605D01*
X-126788Y117902D01*
X-33500D01*
Y114946D01*
D02*
G37*
G36*
X689902Y73888D02*
Y-10089D01*
X669089Y-30902D01*
X649112D01*
X636598Y-18388D01*
Y13681D01*
X637500Y14422D01*
X639500D01*
X641061Y14732D01*
X642384Y15616D01*
X643268Y16939D01*
X643578Y18500D01*
Y28000D01*
X638500D01*
Y30000D01*
X636599D01*
X636579Y30098D01*
Y41500D01*
X636500Y41897D01*
Y45379D01*
X635939Y45268D01*
X635000Y44640D01*
X634061Y45268D01*
X632500Y45578D01*
X630500D01*
X629598Y46319D01*
Y85500D01*
X629210Y87451D01*
X629000Y87765D01*
Y89500D01*
X627710D01*
X621105Y96105D01*
X562805Y154405D01*
X561151Y155510D01*
X559200Y155898D01*
X517500D01*
Y158300D01*
X508000D01*
X498500D01*
Y155898D01*
X459500D01*
Y162000D01*
X440500D01*
Y155898D01*
X425000D01*
Y170000D01*
X425000Y170000D01*
X424889Y172500D01*
X425047Y173700D01*
Y174200D01*
X386953D01*
Y173700D01*
X387111Y172500D01*
X387048Y172144D01*
X385373Y170000D01*
X370627D01*
X368953Y172144D01*
X368890Y172500D01*
X369048Y173700D01*
Y174200D01*
X330953D01*
Y173700D01*
X331111Y172500D01*
X331035Y172074D01*
X330000Y170000D01*
X330000Y170000D01*
X330000Y170000D01*
Y157098D01*
X316000D01*
Y164500D01*
X303000D01*
Y145500D01*
X316000D01*
Y146902D01*
X327874D01*
X330000Y146000D01*
X330503Y145098D01*
X329036Y142598D01*
X319400D01*
X317449Y142210D01*
X315795Y141105D01*
X237408Y62718D01*
X235098Y63675D01*
Y74000D01*
X239500D01*
Y87000D01*
X220500D01*
Y74000D01*
X224902D01*
Y60112D01*
X151888Y-12902D01*
X56950D01*
X56221Y-11616D01*
X55939Y-10402D01*
X56988Y-9035D01*
X57794Y-7088D01*
X58069Y-5000D01*
X57794Y-2912D01*
X56988Y-966D01*
X55706Y706D01*
X54035Y1988D01*
X52088Y2794D01*
X50000Y3069D01*
X47912Y2794D01*
X45965Y1988D01*
X44294Y706D01*
X43012Y-966D01*
X42206Y-2912D01*
X41931Y-5000D01*
X42206Y-7088D01*
X43012Y-9035D01*
X44061Y-10402D01*
X43779Y-11616D01*
X43050Y-12902D01*
X40212D01*
X36598Y-9288D01*
Y13681D01*
X37500Y14422D01*
X39500D01*
X41061Y14732D01*
X42384Y15616D01*
X43268Y16939D01*
X43578Y18500D01*
Y28000D01*
X38500D01*
Y30000D01*
X36598D01*
X36579Y30098D01*
Y41500D01*
X36500Y41897D01*
Y45379D01*
X35939Y45268D01*
X35000Y44640D01*
X34061Y45268D01*
X32500Y45578D01*
X30500D01*
X29598Y46319D01*
Y88500D01*
X29210Y90451D01*
X28105Y92105D01*
X-6395Y126605D01*
X-8049Y127710D01*
X-10000Y128098D01*
X-14500D01*
Y130500D01*
X-24000D01*
X-33500D01*
Y128098D01*
X-128899D01*
X-130850Y127710D01*
X-132504Y126605D01*
X-280011Y-20902D01*
X-566687D01*
X-570402Y-17187D01*
Y0D01*
X-564000D01*
Y13191D01*
X-563500Y13601D01*
Y18103D01*
X-563421Y18500D01*
Y29901D01*
X-563401Y30000D01*
X-561500D01*
Y32000D01*
X-556422D01*
Y41500D01*
X-556732Y43061D01*
X-557616Y44384D01*
X-558939Y45268D01*
X-560500Y45578D01*
X-562500D01*
X-563402Y46319D01*
Y159590D01*
X-529089Y193902D01*
X128888D01*
X159902Y162888D01*
Y105000D01*
X160290Y103049D01*
X161395Y101395D01*
X166395Y96395D01*
X168049Y95290D01*
X169000Y95101D01*
Y90500D01*
X182000D01*
Y109500D01*
X170098D01*
Y115500D01*
X182000D01*
Y134500D01*
X180598D01*
Y163388D01*
X211112Y193902D01*
X569888D01*
X689902Y73888D01*
D02*
G37*
G36*
X-573598Y156027D02*
Y104500D01*
X-587000D01*
Y85500D01*
X-584098D01*
Y79500D01*
X-587000D01*
Y69765D01*
X-587210Y69451D01*
X-587598Y67500D01*
Y46319D01*
X-588500Y45578D01*
X-590500D01*
X-592061Y45268D01*
X-593000Y44640D01*
X-593939Y45268D01*
X-594500Y45379D01*
Y30000D01*
X-598401D01*
X-598421Y30098D01*
Y41500D01*
X-598500Y41896D01*
Y45379D01*
X-599061Y45268D01*
X-600000Y44640D01*
X-600939Y45268D01*
X-602500Y45578D01*
X-604500D01*
X-605402Y46319D01*
Y60500D01*
X-601000D01*
Y70000D01*
Y79500D01*
X-605402D01*
Y85500D01*
X-601000D01*
Y95000D01*
Y104500D01*
X-605402D01*
Y127489D01*
X-575908Y156983D01*
X-573598Y156027D01*
D02*
G37*
G36*
X12402Y93388D02*
Y46319D01*
X11500Y45578D01*
X9500D01*
X7939Y45268D01*
X7000Y44640D01*
X6061Y45268D01*
X4500Y45578D01*
X2500D01*
X1598Y46319D01*
Y74399D01*
X1210Y76350D01*
X105Y78004D01*
X-26581Y104690D01*
X-26000Y106094D01*
Y113500D01*
X-24000D01*
Y115500D01*
X-14500D01*
Y117633D01*
X-12000Y117790D01*
X12402Y93388D01*
D02*
G37*
G36*
X605500Y14620D02*
X606061Y14732D01*
X607000Y15360D01*
X607939Y14732D01*
X608500Y14621D01*
Y30000D01*
X612402D01*
X612421Y29901D01*
Y18500D01*
X612500Y18103D01*
Y13601D01*
X613000Y13191D01*
Y0D01*
X626402D01*
Y-20500D01*
X626790Y-22451D01*
X627895Y-24105D01*
X639383Y-35592D01*
X638426Y-37902D01*
X564574D01*
X563617Y-35592D01*
X593105Y-6105D01*
X594210Y-4451D01*
X594598Y-2500D01*
Y0D01*
X601000D01*
Y13191D01*
X601500Y13601D01*
Y18103D01*
X601579Y18500D01*
Y29902D01*
X601599Y30000D01*
X605500D01*
Y14620D01*
D02*
G37*
%LPC*%
G36*
X517500Y139300D02*
X510000D01*
Y134800D01*
X517500D01*
Y139300D01*
D02*
G37*
G36*
X506000D02*
X498500D01*
Y134800D01*
X506000D01*
Y139300D01*
D02*
G37*
G36*
X40500Y45379D02*
Y32000D01*
X43578D01*
Y41500D01*
X43268Y43061D01*
X42384Y44384D01*
X41061Y45268D01*
X40500Y45379D01*
D02*
G37*
G36*
X-556422Y28000D02*
X-559500D01*
Y14620D01*
X-558939Y14732D01*
X-557616Y15616D01*
X-556732Y16939D01*
X-556422Y18500D01*
Y28000D01*
D02*
G37*
G36*
X-550000Y3069D02*
X-552088Y2794D01*
X-554035Y1988D01*
X-555706Y706D01*
X-556988Y-966D01*
X-557794Y-2912D01*
X-558069Y-5000D01*
X-557794Y-7088D01*
X-556988Y-9035D01*
X-555706Y-10706D01*
X-554035Y-11988D01*
X-552088Y-12794D01*
X-550000Y-13069D01*
X-547912Y-12794D01*
X-545965Y-11988D01*
X-544294Y-10706D01*
X-543012Y-9035D01*
X-542206Y-7088D01*
X-541931Y-5000D01*
X-542206Y-2912D01*
X-543012Y-966D01*
X-544294Y706D01*
X-545965Y1988D01*
X-547912Y2794D01*
X-550000Y3069D01*
D02*
G37*
G36*
X650000D02*
X647912Y2794D01*
X645965Y1988D01*
X644294Y706D01*
X643012Y-966D01*
X642206Y-2912D01*
X641931Y-5000D01*
X642206Y-7088D01*
X643012Y-9035D01*
X644294Y-10706D01*
X645965Y-11988D01*
X647912Y-12794D01*
X650000Y-13069D01*
X652088Y-12794D01*
X654035Y-11988D01*
X655706Y-10706D01*
X656988Y-9035D01*
X657794Y-7088D01*
X658069Y-5000D01*
X657794Y-2912D01*
X656988Y-966D01*
X655706Y706D01*
X654035Y1988D01*
X652088Y2794D01*
X650000Y3069D01*
D02*
G37*
G36*
X49000Y78000D02*
X43000D01*
Y70500D01*
X49000D01*
Y78000D01*
D02*
G37*
G36*
X39000D02*
X33000D01*
Y70500D01*
X39000D01*
Y78000D01*
D02*
G37*
G36*
X649000D02*
X643000D01*
Y70500D01*
X649000D01*
Y78000D01*
D02*
G37*
G36*
X639000D02*
X633000D01*
Y70500D01*
X639000D01*
Y78000D01*
D02*
G37*
G36*
X640500Y45379D02*
Y32000D01*
X643578D01*
Y41500D01*
X643268Y43061D01*
X642384Y44384D01*
X641061Y45268D01*
X640500Y45379D01*
D02*
G37*
G36*
X39000Y89500D02*
X33000D01*
Y82000D01*
X39000D01*
Y89500D01*
D02*
G37*
G36*
X268000Y172500D02*
X260500D01*
Y168000D01*
X268000D01*
Y172500D01*
D02*
G37*
G36*
X279500D02*
X272000D01*
Y168000D01*
X279500D01*
Y172500D01*
D02*
G37*
G36*
X448000Y182000D02*
X440500D01*
Y176000D01*
X448000D01*
Y182000D01*
D02*
G37*
G36*
X459500Y172000D02*
X452000D01*
Y166000D01*
X459500D01*
Y172000D01*
D02*
G37*
G36*
X506000Y166800D02*
X498500D01*
Y162300D01*
X506000D01*
Y166800D01*
D02*
G37*
G36*
X517500D02*
X510000D01*
Y162300D01*
X517500D01*
Y166800D01*
D02*
G37*
G36*
X448000Y172000D02*
X440500D01*
Y166000D01*
X448000D01*
Y172000D01*
D02*
G37*
G36*
X363500Y184247D02*
X352000D01*
Y178200D01*
X369048D01*
Y178700D01*
X368858Y180136D01*
X368304Y181474D01*
X367423Y182623D01*
X366274Y183504D01*
X364936Y184058D01*
X363500Y184247D01*
D02*
G37*
G36*
X404000D02*
X392500D01*
X391064Y184058D01*
X389726Y183504D01*
X388577Y182623D01*
X387696Y181474D01*
X387142Y180136D01*
X386953Y178700D01*
Y178200D01*
X404000D01*
Y184247D01*
D02*
G37*
G36*
X419500D02*
X408000D01*
Y178200D01*
X425047D01*
Y178700D01*
X424858Y180136D01*
X424304Y181474D01*
X423423Y182623D01*
X422274Y183504D01*
X420936Y184058D01*
X419500Y184247D01*
D02*
G37*
G36*
X348000D02*
X336500D01*
X335064Y184058D01*
X333726Y183504D01*
X332577Y182623D01*
X331696Y181474D01*
X331142Y180136D01*
X330953Y178700D01*
Y178200D01*
X348000D01*
Y184247D01*
D02*
G37*
G36*
X459500Y182000D02*
X452000D01*
Y176000D01*
X459500D01*
Y182000D01*
D02*
G37*
G36*
X268000Y181000D02*
X260500D01*
Y176500D01*
X268000D01*
Y181000D01*
D02*
G37*
G36*
X279500D02*
X272000D01*
Y176500D01*
X279500D01*
Y181000D01*
D02*
G37*
G36*
X639000Y89500D02*
X633000D01*
Y82000D01*
X639000D01*
Y89500D01*
D02*
G37*
G36*
X49000D02*
X43000D01*
Y82000D01*
X49000D01*
Y89500D01*
D02*
G37*
G36*
X649000D02*
X643000D01*
Y82000D01*
X649000D01*
Y89500D01*
D02*
G37*
G36*
X-26000Y139000D02*
X-33500D01*
Y134500D01*
X-26000D01*
Y139000D01*
D02*
G37*
G36*
X237500Y159000D02*
X233500D01*
Y153000D01*
X237500D01*
Y159000D01*
D02*
G37*
G36*
X245500D02*
X241500D01*
Y153000D01*
X245500D01*
Y159000D01*
D02*
G37*
G36*
X297000Y164500D02*
X284000D01*
Y160598D01*
X279500D01*
Y162000D01*
X260500D01*
Y149000D01*
X264902D01*
Y146098D01*
X245500D01*
Y149000D01*
X233500D01*
Y146098D01*
X226500D01*
Y159000D01*
X214500D01*
Y143000D01*
X215402D01*
Y141000D01*
X215790Y139049D01*
X216895Y137395D01*
X218088Y136598D01*
X217763Y134324D01*
X217673Y134098D01*
X201000D01*
Y134500D01*
X188000D01*
Y115500D01*
X189402D01*
Y109500D01*
X188000D01*
Y90500D01*
X201000D01*
Y94902D01*
X220500D01*
Y93000D01*
X239500D01*
Y106000D01*
X235098D01*
Y121000D01*
X236000D01*
Y135902D01*
X270000D01*
X271951Y136290D01*
X273605Y137395D01*
X274710Y139049D01*
X275098Y141000D01*
Y149000D01*
X279500D01*
Y150402D01*
X284000D01*
Y145500D01*
X297000D01*
Y164500D01*
D02*
G37*
G36*
X-14500Y139000D02*
X-22000D01*
Y134500D01*
X-14500D01*
Y139000D01*
D02*
G37*
%LPD*%
G36*
X230000Y99500D02*
X194500D01*
Y129000D01*
X230000D01*
Y99500D01*
D02*
G37*
%LPC*%
G36*
X-591000Y79500D02*
X-597000D01*
Y72000D01*
X-591000D01*
Y79500D01*
D02*
G37*
G36*
Y68000D02*
X-597000D01*
Y60500D01*
X-591000D01*
Y68000D01*
D02*
G37*
G36*
Y93000D02*
X-597000D01*
Y85500D01*
X-591000D01*
Y93000D01*
D02*
G37*
G36*
Y104500D02*
X-597000D01*
Y97000D01*
X-591000D01*
Y104500D01*
D02*
G37*
G36*
X-14500Y111500D02*
X-22000D01*
Y107000D01*
X-14500D01*
Y111500D01*
D02*
G37*
%LPD*%
D10*
X50000Y-5000D02*
D03*
X-50000D02*
D03*
X650000D02*
D03*
X550000D02*
D03*
X-550000D02*
D03*
X-650000D02*
D03*
D11*
X-599000Y95000D02*
D03*
X-579000D02*
D03*
X-599000Y70000D02*
D03*
X-579000D02*
D03*
X41000Y80000D02*
D03*
X21000D02*
D03*
X641000D02*
D03*
X621000D02*
D03*
D12*
X508000Y160300D02*
D03*
Y141300D02*
D03*
X-24000Y132500D02*
D03*
Y113500D02*
D03*
X230000Y80500D02*
D03*
Y99500D02*
D03*
X270000Y174500D02*
D03*
Y155500D02*
D03*
D13*
X450000Y174000D02*
D03*
Y154000D02*
D03*
D14*
X220500Y151000D02*
D03*
X239500D02*
D03*
X230000Y129000D02*
D03*
D15*
X175500Y100000D02*
D03*
X194500D02*
D03*
X175500Y125000D02*
D03*
X194500D02*
D03*
X309500Y155000D02*
D03*
X290500D02*
D03*
D16*
X350000Y100000D02*
D03*
Y125400D02*
D03*
Y150800D02*
D03*
Y23800D02*
D03*
Y49200D02*
D03*
Y176200D02*
D03*
Y74600D02*
D03*
X406000Y100000D02*
D03*
Y125400D02*
D03*
Y150800D02*
D03*
Y23800D02*
D03*
Y49200D02*
D03*
Y176200D02*
D03*
Y74600D02*
D03*
D17*
X-38500Y30000D02*
D03*
X-31500D02*
D03*
X-24500D02*
D03*
X-17500D02*
D03*
X-10500D02*
D03*
X-3500D02*
D03*
X3500D02*
D03*
X10500D02*
D03*
X17500D02*
D03*
X24500D02*
D03*
X31500D02*
D03*
X38500D02*
D03*
X561500D02*
D03*
X568500D02*
D03*
X575500D02*
D03*
X582500D02*
D03*
X589500D02*
D03*
X596500D02*
D03*
X603500D02*
D03*
X610500D02*
D03*
X617500D02*
D03*
X624500D02*
D03*
X631500D02*
D03*
X638500D02*
D03*
X-638500D02*
D03*
X-631500D02*
D03*
X-624500D02*
D03*
X-617500D02*
D03*
X-610500D02*
D03*
X-603500D02*
D03*
X-596500D02*
D03*
X-589500D02*
D03*
X-582500D02*
D03*
X-575500D02*
D03*
X-568500D02*
D03*
X-561500D02*
D03*
D18*
X171397Y-60000D02*
X305997Y74600D01*
X15100Y-60000D02*
X171397D01*
X-31500Y-13399D02*
X15100Y-60000D01*
X18000Y-53000D02*
X168497D01*
X-24500Y-10500D02*
X18000Y-53000D01*
X168497D02*
X308497Y87000D01*
X21100Y-46000D02*
X165598D01*
X-17500Y-7400D02*
X21100Y-46000D01*
X165598D02*
X311598Y100000D01*
X-10500Y-4399D02*
X24100Y-39000D01*
X162698D02*
X314698Y113000D01*
X24100Y-39000D02*
X162698D01*
X-3500Y-1500D02*
X27000Y-32000D01*
X159799D02*
X317199Y125400D01*
X27000Y-32000D02*
X159799D01*
X29899Y-25000D02*
X156899D01*
X27201Y-22302D02*
X29899Y-25000D01*
X27201Y-22302D02*
Y-22000D01*
X156899Y-25000D02*
X319400Y137500D01*
X24500Y-19299D02*
X27201Y-22000D01*
X151101Y-11000D02*
X185000Y22899D01*
X99000Y-11000D02*
X151101D01*
X58000Y30000D02*
X99000Y-11000D01*
X154000Y-18000D02*
X230000Y58000D01*
X38101Y-18000D02*
X154000D01*
X31500Y-11400D02*
X38101Y-18000D01*
X38500Y30000D02*
X58000D01*
X-589500D02*
Y56000D01*
X603500Y88500D02*
X610500Y81500D01*
X550700Y141300D02*
X603500Y88500D01*
Y30000D02*
Y88500D01*
X610500Y30000D02*
Y81500D01*
X508000Y141300D02*
X550700D01*
X617500Y30000D02*
Y92500D01*
X508000Y160300D02*
Y176200D01*
X-600000Y70000D02*
X-599000Y71000D01*
X-600000Y70000D02*
X-596500Y66500D01*
X-580000Y70000D02*
X-575500Y65500D01*
X-579000Y70000D02*
Y95000D01*
X638500Y30000D02*
Y92500D01*
X554800Y176200D02*
X638500Y92500D01*
X452000Y124000D02*
X546899D01*
X438000Y138000D02*
X452000Y124000D01*
X383000Y138000D02*
X438000D01*
X546899Y124000D02*
X596500Y74399D01*
X24500Y30000D02*
Y88500D01*
X-10000Y123000D02*
X24500Y88500D01*
X-128899Y123000D02*
X-10000D01*
X3500Y77299D02*
Y96500D01*
X-16000Y116000D02*
X3500Y96500D01*
X-126000Y116000D02*
X-16000D01*
X-3000Y130000D02*
X38500Y88500D01*
X-131799Y130000D02*
X-3000D01*
X-280799Y-19000D02*
X-131799Y130000D01*
X-554000Y-19000D02*
X-280799D01*
X-267302Y-55000D02*
X-117302Y95000D01*
X-580000Y-55000D02*
X-267302D01*
X-624500Y-10500D02*
X-580000Y-55000D01*
X-617500Y-7400D02*
X-577900Y-47000D01*
X-267201Y-45000D02*
X-120201Y102000D01*
X-267201Y-45000D02*
X-267201D01*
X-269201Y-47000D02*
X-267201Y-45000D01*
X-577900Y-47000D02*
X-269201D01*
X-272101Y-40000D02*
X-123101Y109000D01*
X-575000Y-40000D02*
X-272101D01*
X-603500Y-11500D02*
X-575000Y-40000D01*
X-275000Y-33000D02*
X-126000Y116000D01*
X-589500Y-15199D02*
X-571698Y-33000D01*
X-275000D01*
X-277899Y-26000D02*
X-128899Y123000D01*
X-568799Y-26000D02*
X-277899D01*
X-575500Y-19299D02*
X-568799Y-26000D01*
X-561500Y-11500D02*
X-554000Y-19000D01*
X-561500Y-11500D02*
Y30000D01*
X-531201Y199000D02*
X131000D01*
X-568500Y161701D02*
X-531201Y199000D01*
X-568500Y30000D02*
Y161701D01*
X-534100Y206000D02*
X574899D01*
X-610500Y129601D02*
X-534100Y206000D01*
X-610500Y30000D02*
Y129601D01*
X-537000Y213000D02*
X577799D01*
X-631500Y118500D02*
X-537000Y213000D01*
X165000Y105000D02*
Y165000D01*
X131000Y199000D02*
X165000Y165000D01*
Y105000D02*
X170000Y100000D01*
X175500D01*
X577799Y213000D02*
X709000Y81799D01*
Y-18000D02*
Y81799D01*
X574899Y206000D02*
X702000Y78899D01*
X677000Y-50000D02*
X709000Y-18000D01*
X702000Y-15101D02*
Y78899D01*
X674100Y-43000D02*
X702000Y-15101D01*
X647000Y-36000D02*
X671201D01*
X631500Y-20500D02*
X647000Y-36000D01*
X631500Y-20500D02*
Y30000D01*
X695000Y-12201D02*
Y76000D01*
X671201Y-36000D02*
X695000Y-12201D01*
X515201Y-43000D02*
X674100D01*
X512301Y-50000D02*
X677000D01*
X450302Y12000D02*
X512301Y-50000D01*
X448401Y23800D02*
X515201Y-43000D01*
X556000Y-36000D02*
X589500Y-2500D01*
X518101Y-36000D02*
X556000D01*
X446101Y36000D02*
X518101Y-36000D01*
X589500Y-2500D02*
Y30000D01*
X568500Y-13500D02*
Y30000D01*
X553000Y-29000D02*
X568500Y-13500D01*
X521000Y-29000D02*
X553000D01*
X442800Y49200D02*
X521000Y-29000D01*
X383000Y12000D02*
X450302D01*
X406000Y23800D02*
X448401D01*
X384000Y36000D02*
X446101D01*
X371200Y23800D02*
X383000Y12000D01*
X350000Y23800D02*
X371200D01*
X370800Y49200D02*
X384000Y36000D01*
X350000Y49200D02*
X370800D01*
X406000D02*
X442800D01*
X175500Y125000D02*
Y165500D01*
X209000Y199000D01*
X572000D01*
X695000Y76000D01*
X270000Y141000D02*
Y155500D01*
X220500Y141000D02*
X270000D01*
X220500D02*
Y151000D01*
X309500Y152000D02*
X350000D01*
X309500D02*
Y155000D01*
X350000Y150800D02*
Y152000D01*
X270000Y155500D02*
X290500D01*
Y155000D02*
Y155500D01*
X206200Y176200D02*
X239500D01*
X240000D01*
X239500Y151000D02*
Y176200D01*
X194500Y129000D02*
X230000D01*
X194500Y100000D02*
X230000D01*
X194500D02*
Y125000D01*
X230000Y100000D02*
Y129000D01*
Y99500D02*
Y100000D01*
X194500Y125000D02*
Y129000D01*
X-596500Y30000D02*
Y66500D01*
X-582500Y67500D02*
X-580000Y70000D01*
X-582500Y30000D02*
Y67500D01*
X-575500Y30000D02*
Y65500D01*
X17500Y30000D02*
Y95000D01*
X38500Y30000D02*
Y88500D01*
X617500Y92500D02*
X624500Y85500D01*
Y30000D02*
Y85500D01*
X559200Y150800D02*
X617500Y92500D01*
X406000Y150800D02*
X559200D01*
X185000Y22899D02*
Y155000D01*
X305997Y74600D02*
X350000D01*
X308497Y87000D02*
X372000D01*
X311598Y100000D02*
X350000D01*
X319400Y137500D02*
X372500D01*
X317199Y125400D02*
X350000D01*
X314698Y113000D02*
X373000D01*
X230000Y58000D02*
Y80500D01*
X-31500Y-13399D02*
Y30000D01*
X551000Y100000D02*
X575500Y75500D01*
X406000Y100000D02*
X551000D01*
X548400Y112600D02*
X582500Y78500D01*
X383000Y112600D02*
X548400D01*
X596500Y30000D02*
Y74399D01*
X350000Y100000D02*
X370400D01*
X383000Y112600D01*
X385000Y100000D02*
X406000D01*
X372000Y87000D02*
X385000Y100000D01*
X385400Y125400D02*
X406000D01*
X373000Y113000D02*
X385400Y125400D01*
X370400D02*
X383000Y138000D01*
X350000Y125400D02*
X370400D01*
X385800Y150800D02*
X406000D01*
X372500Y137500D02*
X385800Y150800D01*
X-10500Y-4399D02*
Y30000D01*
X-3500Y-1500D02*
Y30000D01*
X3500Y30000D02*
Y77299D01*
X10500Y30000D02*
Y70299D01*
X3500Y77299D02*
X10500Y70299D01*
X-631500Y30000D02*
Y118500D01*
X31500Y-11400D02*
Y30000D01*
X185000Y155000D02*
X206200Y176200D01*
X24500Y-19299D02*
Y30000D01*
X17500Y-12299D02*
X24500Y-19299D01*
X17500Y-12299D02*
Y30000D01*
X-17500Y-7400D02*
Y30000D01*
X-24500Y-10500D02*
Y30000D01*
X575500D02*
Y75500D01*
X582500Y30000D02*
Y78500D01*
X596500Y30000D02*
X596500Y30000D01*
X603500Y30000D02*
X603500Y30000D01*
X3500Y30000D02*
X3500Y30000D01*
X-3500Y30000D02*
X-3500Y30000D01*
X-3500Y30000D02*
Y74399D01*
X-38101Y109000D02*
X-3500Y74399D01*
X-123101Y109000D02*
X-38101D01*
X-17500Y30000D02*
Y78500D01*
X-41000Y102000D02*
X-17500Y78500D01*
X-24500Y30000D02*
Y75500D01*
X-44000Y95000D02*
X-24500Y75500D01*
X-117302Y95000D02*
X-44000D01*
X-120201Y102000D02*
X-41000D01*
X-624500Y-10500D02*
Y30000D01*
X-617500Y-7400D02*
Y30000D01*
X-589500Y-15199D02*
Y30000D01*
X-582500Y-12299D02*
Y30000D01*
Y-12299D02*
X-575500Y-19299D01*
X-603500Y-11500D02*
Y30000D01*
X-596500Y-8199D02*
X-589500Y-15199D01*
X-596500Y-8199D02*
Y30000D01*
X-575500Y-19299D02*
Y30000D01*
D19*
X508000Y176200D02*
X554800D01*
X406000D02*
X508000D01*
X239500D02*
X350000D01*
X406000D01*
M02*
